M48
;Layer_Color=9474304
;FILE_FORMAT=2:5
INCH,LZ
;TYPE=PLATED
T1F00S00C0.01181
T2F00S00C0.03543
T3F00S00C0.03937
T4F00S00C0.04016
;TYPE=NON_PLATED
T5F00S00C0.07874
%
T01
X-00146Y-0194261
X00167
X00808Y-0114061
X0097356Y-0112866
X00856Y-0035561
X00695Y-0048361
X01825Y-0030561
X01962
X0206Y-0038261
X0055839Y-0032561
X004983Y-00314
X0046Y-00279
X00149Y-00287
X0013216Y-0062702
X00224Y-0062154
X0004161Y-0062022
X0006Y-0057861
X-00067Y-00547
X-00082Y-0061689
X-0022352Y-0052568
X-00308Y-0046261
X-00441Y-0043361
X-0044Y-0035
X-00443Y-00317
X-00523Y-00405
X-00779Y-00426
X-0070259Y-0053969
X-00641Y-0065961
X-00507Y-0072261
X-00494Y-00802
X-0042974Y-0080374
X-00249Y-00834
X-00197Y-00806
X00045Y-00831
X00025Y-00867
X00129Y-0092161
X00258Y-0087
X00288Y-0082761
X00464Y-0071861
X00258Y-0114561
X-00025Y-01192
X-00125Y-01194
X-00186Y-0152261
X00153Y-0155861
X-00828Y-0075961
X-00973Y-00199
X-0112Y0003039
X-01322Y0000739
X-0122097Y0019642
X-02022Y0027339
X-0111Y0099939
X-0114184Y0106865
X-00715Y0109439
X0017Y0111639
X00446Y0095639
X00329Y0075739
X00281Y0067539
X0046939Y0061339
X005Y0044539
X00426Y0019639
X00433Y00115
X003905Y0008788
X00299Y00114
X00274Y0008539
X00239
X00215Y0013839
X0022Y0018839
X00189
X00242Y0021839
X00265Y0026839
X00117Y0033339
X0011038Y0055739
X0007Y0057317
X-0007878Y0063028
X-00082Y0051039
X-00188Y0046647
X-00391Y0048539
X-00409Y00374
X-0049153Y0029019
X-00499Y0017039
X-00514Y00047
X-00553Y-0002985
Y-00183
X-0040523Y-00116
X-00317Y-00125
X-00326Y-00007
X-00229Y00075
X-00371Y00159
X-00105Y0017739
X-0008329Y0027513
X00162Y0004139
X0014164Y0000164
X00146Y-0003961
X00237Y-0003792
X00234Y-0019497
X00152Y-0023761
X-00003Y-0024
X-00185Y-0014461
X004Y-0010661
X0043037Y-0009705
X00552Y-0007261
X0050417Y-0019561
X00427Y-0025761
X-00659Y0006139
X-00898Y-00145
X0064588Y0018109
X00666Y0024539
X00606Y0042339
X00661Y0064039
X00788Y0051339
X00836Y0031639
X00898Y0013039
X00893Y0007239
X0092469Y000697
X00893Y-0001861
X00879Y-0005161
X01004Y-0006915
X01081Y-0006761
X0111132Y-0019861
X01038
X01295Y-0014761
X01707Y-0021811
X01784Y-0007961
X01653Y0007939
X0023Y0142381
X001175Y0155039
X00206Y0171539
X-00066Y0183039
X-0011146Y0150139
X-00683Y0144139
T02
X-02098Y-0016061
Y-0006061
Y0006239
Y0016239
T03
X-00052Y-0211261
X00048
T04
X02078Y-0019761
Y-0009761
Y0000239
Y0010239
Y0020239
T05
X0Y-01577
X-01574Y0
X01576
X00002Y01576
M30
