G04*
G04 #@! TF.GenerationSoftware,Altium Limited,Altium Designer,18.1.7 (191)*
G04*
G04 Layer_Color=128*
%FSLAX25Y25*%
%MOIN*%
G70*
G01*
G75*
%ADD570C,0.00200*%
D570*
X-3737Y157600D02*
X4137D01*
X200Y153663D02*
Y161537D01*
X-211572Y-6061D02*
X-208028D01*
X-209800Y-7833D02*
Y-4289D01*
X-211572Y-16061D02*
X-208028D01*
X-209800Y-17833D02*
Y-14289D01*
X-211572Y16239D02*
X-208028D01*
X-209800Y14467D02*
Y18011D01*
X-211572Y6239D02*
X-208028D01*
X-209800Y4467D02*
Y8011D01*
X-7169Y-211261D02*
X-3232D01*
X-5200Y-213230D02*
Y-209293D01*
X2832Y-211261D02*
X6769D01*
X4800Y-213230D02*
Y-209293D01*
X205792Y-19761D02*
X209808D01*
X207800Y-21769D02*
Y-17753D01*
X205792Y20239D02*
X209808D01*
X207800Y18231D02*
Y22247D01*
X205792Y10239D02*
X209808D01*
X207800Y8231D02*
Y12247D01*
X205792Y239D02*
X209808D01*
X207800Y-1769D02*
Y2247D01*
X205792Y-9761D02*
X209808D01*
X207800Y-11769D02*
Y-7753D01*
X-3937Y-157700D02*
X3937D01*
X0Y-161637D02*
Y-153763D01*
X153663Y0D02*
X161537D01*
X157600Y-3937D02*
Y3937D01*
X-161337Y0D02*
X-153463D01*
X-157400Y-3937D02*
Y3937D01*
X54610Y-7261D02*
X55791D01*
X55200Y-7852D02*
Y-6671D01*
X42709Y11500D02*
X43891D01*
X43300Y10909D02*
Y12091D01*
X29309Y11400D02*
X30491D01*
X29900Y10809D02*
Y11991D01*
X88709Y7239D02*
X89890D01*
X89300Y6648D02*
Y7829D01*
X88709Y-1861D02*
X89890D01*
X89300Y-2452D02*
Y-1271D01*
X49239Y-31400D02*
X50420D01*
X49830Y-31991D02*
Y-30809D01*
X42109Y-25761D02*
X43291D01*
X42700Y-26352D02*
Y-25170D01*
X45409Y-27900D02*
X46591D01*
X46000Y-28491D02*
Y-27309D01*
X23310Y8539D02*
X24490D01*
X23900Y7948D02*
Y9129D01*
X21409Y18839D02*
X22591D01*
X22000Y18248D02*
Y19430D01*
X22809Y-19497D02*
X23990D01*
X23400Y-20088D02*
Y-18907D01*
X42446Y-9705D02*
X43627D01*
X43037Y-10296D02*
Y-9115D01*
X91879Y6970D02*
X93060D01*
X92469Y6379D02*
Y7560D01*
X49826Y-19561D02*
X51007D01*
X50417Y-20152D02*
Y-18970D01*
X55248Y-32561D02*
X56429D01*
X55839Y-33152D02*
Y-31971D01*
X38460Y8788D02*
X39641D01*
X39050Y8198D02*
Y9379D01*
X26809Y8539D02*
X27991D01*
X27400Y7948D02*
Y9129D01*
X18309Y18839D02*
X19490D01*
X18900Y18248D02*
Y19430D01*
X14009Y-3961D02*
X15191D01*
X14600Y-4552D02*
Y-3370D01*
X-41491Y37400D02*
X-40309D01*
X-40900Y36809D02*
Y37991D01*
X-90390Y-14500D02*
X-89210D01*
X-89800Y-15090D02*
Y-13909D01*
X-41114Y-11600D02*
X-39933D01*
X-40523Y-12191D02*
Y-11009D01*
X12626Y-62702D02*
X13807D01*
X13216Y-63292D02*
Y-62111D01*
X-8791Y-61689D02*
X-7609D01*
X-8200Y-62279D02*
Y-61098D01*
X-31391Y-46261D02*
X-30209D01*
X-30800Y-46852D02*
Y-45671D01*
X89210Y13039D02*
X90390D01*
X89800Y12448D02*
Y13630D01*
X-97891Y-19900D02*
X-96710D01*
X-97300Y-20491D02*
Y-19309D01*
X63998Y18109D02*
X65179D01*
X64588Y17518D02*
Y18699D01*
X39409Y-10661D02*
X40591D01*
X40000Y-11252D02*
Y-10070D01*
X15609Y4139D02*
X16791D01*
X16200Y3548D02*
Y4730D01*
X13574Y164D02*
X14755D01*
X14164Y-426D02*
Y755D01*
X23110Y-3792D02*
X24291D01*
X23700Y-4383D02*
Y-3201D01*
X-7291Y-54700D02*
X-6109D01*
X-6700Y-55291D02*
Y-54110D01*
X-22942Y-52568D02*
X-21761D01*
X-22352Y-53159D02*
Y-51978D01*
X-78491Y-42600D02*
X-77310D01*
X-77900Y-43191D02*
Y-42009D01*
X-891Y-24000D02*
X291D01*
X-300Y-24590D02*
Y-23410D01*
X-44591Y-35000D02*
X-43409D01*
X-44000Y-35591D02*
Y-34409D01*
X-33191Y-700D02*
X-32009D01*
X-32600Y-1291D02*
Y-109D01*
X-19091Y-14461D02*
X-17910D01*
X-18500Y-15052D02*
Y-13871D01*
X-23491Y7500D02*
X-22309D01*
X-22900Y6909D02*
Y8091D01*
X-52890Y-40500D02*
X-51710D01*
X-52300Y-41091D02*
Y-39909D01*
X-70850Y-53969D02*
X-69669D01*
X-70259Y-54559D02*
Y-53378D01*
X-3091Y-119200D02*
X-1909D01*
X-2500Y-119791D02*
Y-118609D01*
X-13091Y-119400D02*
X-11909D01*
X-12500Y-119991D02*
Y-118809D01*
X-43565Y-80374D02*
X-42384D01*
X-42974Y-80964D02*
Y-79783D01*
X-49991Y-80200D02*
X-48809D01*
X-49400Y-80791D02*
Y-79610D01*
X-20290Y-80600D02*
X-19109D01*
X-19700Y-81191D02*
Y-80010D01*
X3909Y-83100D02*
X5091D01*
X4500Y-83691D02*
Y-82509D01*
X1909Y-86700D02*
X3091D01*
X2500Y-87291D02*
Y-86110D01*
X-25490Y-83400D02*
X-24309D01*
X-24900Y-83991D02*
Y-82810D01*
X-44891Y-31700D02*
X-43709D01*
X-44300Y-32291D02*
Y-31109D01*
X-37691Y15900D02*
X-36509D01*
X-37100Y15310D02*
Y16490D01*
X-55891Y-2985D02*
X-54710D01*
X-55300Y-3576D02*
Y-2395D01*
X-55891Y-18300D02*
X-54710D01*
X-55300Y-18891D02*
Y-17709D01*
X-51990Y4700D02*
X-50809D01*
X-51400Y4109D02*
Y5291D01*
X3571Y-62022D02*
X4752D01*
X4161Y-62613D02*
Y-61432D01*
X5409Y-57861D02*
X6591D01*
X6000Y-58452D02*
Y-57270D01*
X14310Y-28700D02*
X15491D01*
X14900Y-29291D02*
Y-28109D01*
X14609Y-23761D02*
X15790D01*
X15200Y-24352D02*
Y-23170D01*
X21810Y-62154D02*
X22990D01*
X22400Y-62744D02*
Y-61563D01*
X25210Y-87000D02*
X26391D01*
X25800Y-87590D02*
Y-86409D01*
X25210Y-114561D02*
X26391D01*
X25800Y-115152D02*
Y-113970D01*
X-32291Y-12500D02*
X-31109D01*
X-31700Y-13091D02*
Y-11909D01*
X128909Y-14761D02*
X130091D01*
X129500Y-15352D02*
Y-14171D01*
X107509Y-6761D02*
X108691D01*
X108100Y-7352D02*
Y-6171D01*
X99809Y-6915D02*
X100990D01*
X100400Y-7505D02*
Y-6324D01*
X85009Y-35561D02*
X86190D01*
X85600Y-36152D02*
Y-34971D01*
X181909Y-30561D02*
X183091D01*
X182500Y-31152D02*
Y-29970D01*
X195609Y-30561D02*
X196791D01*
X196200Y-31152D02*
Y-29970D01*
X-7191Y183039D02*
X-6009D01*
X-6600Y182448D02*
Y183630D01*
X11159Y155039D02*
X12341D01*
X11750Y154448D02*
Y155630D01*
X16409Y111639D02*
X17591D01*
X17000Y111048D02*
Y112230D01*
X-8468Y63028D02*
X-7287D01*
X-7878Y62437D02*
Y63618D01*
X-19390Y46647D02*
X-18210D01*
X-18800Y46057D02*
Y47238D01*
X-39691Y48539D02*
X-38509D01*
X-39100Y47948D02*
Y49130D01*
X-66491Y6139D02*
X-65310D01*
X-65900Y5548D02*
Y6729D01*
X-49744Y29019D02*
X-48563D01*
X-49153Y28429D02*
Y29610D01*
X-50491Y17039D02*
X-49309D01*
X-49900Y16448D02*
Y17629D01*
X-44691Y-43361D02*
X-43509D01*
X-44100Y-43952D02*
Y-42770D01*
X83009Y31639D02*
X84190D01*
X83600Y31048D02*
Y32230D01*
X10447Y55739D02*
X11628D01*
X11038Y55148D02*
Y56330D01*
X6409Y57317D02*
X7591D01*
X7000Y56726D02*
Y57907D01*
X-132791Y739D02*
X-131609D01*
X-132200Y148D02*
Y1330D01*
X12309Y-92161D02*
X13490D01*
X12900Y-92752D02*
Y-91571D01*
X-111591Y99939D02*
X-110409D01*
X-111000Y99348D02*
Y100530D01*
X-114775Y106865D02*
X-113593D01*
X-114184Y106274D02*
Y107455D01*
X-72091Y109439D02*
X-70910D01*
X-71500Y108848D02*
Y110029D01*
X-68891Y144139D02*
X-67709D01*
X-68300Y143548D02*
Y144729D01*
X23609Y21839D02*
X24791D01*
X24200Y21248D02*
Y22430D01*
X25909Y26839D02*
X27091D01*
X26500Y26248D02*
Y27430D01*
X-8791Y51039D02*
X-7609D01*
X-8200Y50448D02*
Y51630D01*
X-8920Y27513D02*
X-7739D01*
X-8329Y26922D02*
Y28104D01*
X66009Y24539D02*
X67190D01*
X66600Y23948D02*
Y25130D01*
X11109Y33339D02*
X12291D01*
X11700Y32748D02*
Y33929D01*
X80209Y-114061D02*
X81391D01*
X80800Y-114652D02*
Y-113470D01*
X68910Y-48361D02*
X70091D01*
X69500Y-48952D02*
Y-47771D01*
X49409Y44539D02*
X50591D01*
X50000Y43948D02*
Y45129D01*
X-122688Y19642D02*
X-121507D01*
X-122097Y19051D02*
Y20232D01*
X20009Y171539D02*
X21191D01*
X20600Y170948D02*
Y172129D01*
X22410Y142381D02*
X23591D01*
X23000Y141790D02*
Y142971D01*
X32309Y75739D02*
X33491D01*
X32900Y75148D02*
Y76329D01*
X44009Y95639D02*
X45191D01*
X44600Y95048D02*
Y96229D01*
X27509Y67539D02*
X28691D01*
X28100Y66948D02*
Y68129D01*
X46348Y61339D02*
X47529D01*
X46939Y60748D02*
Y61930D01*
X205410Y-38261D02*
X206591D01*
X206000Y-38852D02*
Y-37670D01*
X65509Y64039D02*
X66690D01*
X66100Y63448D02*
Y64630D01*
X78210Y51339D02*
X79391D01*
X78800Y50748D02*
Y51929D01*
X45809Y-71861D02*
X46991D01*
X46400Y-72452D02*
Y-71271D01*
X28209Y-82761D02*
X29391D01*
X28800Y-83352D02*
Y-82170D01*
X-202791Y27339D02*
X-201609D01*
X-202200Y26748D02*
Y27929D01*
X-64691Y-65961D02*
X-63510D01*
X-64100Y-66552D02*
Y-65371D01*
X-51291Y-72261D02*
X-50109D01*
X-50700Y-72852D02*
Y-71671D01*
X-15191Y-194261D02*
X-14009D01*
X-14600Y-194852D02*
Y-193670D01*
X16109Y-194261D02*
X17290D01*
X16700Y-194852D02*
Y-193670D01*
X164709Y7939D02*
X165891D01*
X165300Y7348D02*
Y8529D01*
X87309Y-5161D02*
X88490D01*
X87900Y-5752D02*
Y-4571D01*
X-11737Y150139D02*
X-10556D01*
X-11146Y149548D02*
Y150730D01*
X60009Y42339D02*
X61190D01*
X60600Y41748D02*
Y42930D01*
X42009Y19639D02*
X43191D01*
X42600Y19048D02*
Y20230D01*
X103209Y-19861D02*
X104391D01*
X103800Y-20452D02*
Y-19271D01*
X110541Y-19861D02*
X111722D01*
X111132Y-20452D02*
Y-19271D01*
X-83390Y-75961D02*
X-82209D01*
X-82800Y-76552D02*
Y-75371D01*
X-112591Y3039D02*
X-111409D01*
X-112000Y2448D02*
Y3630D01*
X14709Y-155861D02*
X15890D01*
X15300Y-156452D02*
Y-155271D01*
X96765Y-112866D02*
X97947D01*
X97356Y-113456D02*
Y-112275D01*
X-11091Y17739D02*
X-9909D01*
X-10500Y17148D02*
Y18329D01*
X-19191Y-152261D02*
X-18010D01*
X-18600Y-152852D02*
Y-151671D01*
X20910Y13839D02*
X22091D01*
X21500Y13248D02*
Y14430D01*
X170109Y-21811D02*
X171291D01*
X170700Y-22402D02*
Y-21220D01*
X177809Y-7961D02*
X178991D01*
X178400Y-8552D02*
Y-7371D01*
M02*
