G04*
G04 #@! TF.GenerationSoftware,Altium Limited,Altium Designer,18.1.7 (191)*
G04*
G04 Layer_Color=8388736*
%FSLAX25Y25*%
%MOIN*%
G70*
G01*
G75*
G04:AMPARAMS|DCode=221|XSize=29.72mil|YSize=22.72mil|CornerRadius=0mil|HoleSize=0mil|Usage=FLASHONLY|Rotation=325.000|XOffset=0mil|YOffset=0mil|HoleType=Round|Shape=Rectangle|*
%AMROTATEDRECTD221*
4,1,4,-0.01869,-0.00078,-0.00566,0.01783,0.01869,0.00078,0.00566,-0.01783,-0.01869,-0.00078,0.0*
%
%ADD221ROTATEDRECTD221*%

G04:AMPARAMS|DCode=222|XSize=67.06mil|YSize=47.37mil|CornerRadius=0mil|HoleSize=0mil|Usage=FLASHONLY|Rotation=291.000|XOffset=0mil|YOffset=0mil|HoleType=Round|Shape=Rectangle|*
%AMROTATEDRECTD222*
4,1,4,-0.03413,0.02281,0.01010,0.03979,0.03413,-0.02281,-0.01010,-0.03979,-0.03413,0.02281,0.0*
%
%ADD222ROTATEDRECTD222*%

G04:AMPARAMS|DCode=223|XSize=67.06mil|YSize=47.37mil|CornerRadius=0mil|HoleSize=0mil|Usage=FLASHONLY|Rotation=285.000|XOffset=0mil|YOffset=0mil|HoleType=Round|Shape=Rectangle|*
%AMROTATEDRECTD223*
4,1,4,-0.03156,0.02626,0.01420,0.03852,0.03156,-0.02626,-0.01420,-0.03852,-0.03156,0.02626,0.0*
%
%ADD223ROTATEDRECTD223*%

G04:AMPARAMS|DCode=224|XSize=67.06mil|YSize=47.37mil|CornerRadius=0mil|HoleSize=0mil|Usage=FLASHONLY|Rotation=241.000|XOffset=0mil|YOffset=0mil|HoleType=Round|Shape=Rectangle|*
%AMROTATEDRECTD224*
4,1,4,-0.00446,0.04081,0.03697,0.01784,0.00446,-0.04081,-0.03697,-0.01784,-0.00446,0.04081,0.0*
%
%ADD224ROTATEDRECTD224*%

G04:AMPARAMS|DCode=225|XSize=67.06mil|YSize=47.37mil|CornerRadius=0mil|HoleSize=0mil|Usage=FLASHONLY|Rotation=353.000|XOffset=0mil|YOffset=0mil|HoleType=Round|Shape=Rectangle|*
%AMROTATEDRECTD225*
4,1,4,-0.03616,-0.01942,-0.03039,0.02759,0.03616,0.01942,0.03039,-0.02759,-0.03616,-0.01942,0.0*
%
%ADD225ROTATEDRECTD225*%

G04:AMPARAMS|DCode=226|XSize=29.72mil|YSize=22.72mil|CornerRadius=0mil|HoleSize=0mil|Usage=FLASHONLY|Rotation=18.000|XOffset=0mil|YOffset=0mil|HoleType=Round|Shape=Rectangle|*
%AMROTATEDRECTD226*
4,1,4,-0.01062,-0.01540,-0.01765,0.00621,0.01062,0.01540,0.01765,-0.00621,-0.01062,-0.01540,0.0*
%
%ADD226ROTATEDRECTD226*%

G04:AMPARAMS|DCode=227|XSize=67.06mil|YSize=47.37mil|CornerRadius=0mil|HoleSize=0mil|Usage=FLASHONLY|Rotation=345.000|XOffset=0mil|YOffset=0mil|HoleType=Round|Shape=Rectangle|*
%AMROTATEDRECTD227*
4,1,4,-0.03852,-0.01420,-0.02626,0.03156,0.03852,0.01420,0.02626,-0.03156,-0.03852,-0.01420,0.0*
%
%ADD227ROTATEDRECTD227*%

G04:AMPARAMS|DCode=228|XSize=29.72mil|YSize=22.72mil|CornerRadius=0mil|HoleSize=0mil|Usage=FLASHONLY|Rotation=295.000|XOffset=0mil|YOffset=0mil|HoleType=Round|Shape=Rectangle|*
%AMROTATEDRECTD228*
4,1,4,-0.01658,0.00867,0.00402,0.01827,0.01658,-0.00867,-0.00402,-0.01827,-0.01658,0.00867,0.0*
%
%ADD228ROTATEDRECTD228*%

G04:AMPARAMS|DCode=229|XSize=29.72mil|YSize=22.72mil|CornerRadius=0mil|HoleSize=0mil|Usage=FLASHONLY|Rotation=195.000|XOffset=0mil|YOffset=0mil|HoleType=Round|Shape=Rectangle|*
%AMROTATEDRECTD229*
4,1,4,0.01141,0.01482,0.01730,-0.00713,-0.01141,-0.01482,-0.01730,0.00713,0.01141,0.01482,0.0*
%
%ADD229ROTATEDRECTD229*%

G04:AMPARAMS|DCode=230|XSize=29.72mil|YSize=22.72mil|CornerRadius=0mil|HoleSize=0mil|Usage=FLASHONLY|Rotation=305.000|XOffset=0mil|YOffset=0mil|HoleType=Round|Shape=Rectangle|*
%AMROTATEDRECTD230*
4,1,4,-0.01783,0.00566,0.00078,0.01869,0.01783,-0.00566,-0.00078,-0.01869,-0.01783,0.00566,0.0*
%
%ADD230ROTATEDRECTD230*%

G04:AMPARAMS|DCode=231|XSize=29.72mil|YSize=22.72mil|CornerRadius=0mil|HoleSize=0mil|Usage=FLASHONLY|Rotation=152.000|XOffset=0mil|YOffset=0mil|HoleType=Round|Shape=Rectangle|*
%AMROTATEDRECTD231*
4,1,4,0.01846,0.00306,0.00779,-0.01701,-0.01846,-0.00306,-0.00779,0.01701,0.01846,0.00306,0.0*
%
%ADD231ROTATEDRECTD231*%

G04:AMPARAMS|DCode=232|XSize=29.72mil|YSize=22.72mil|CornerRadius=0mil|HoleSize=0mil|Usage=FLASHONLY|Rotation=143.000|XOffset=0mil|YOffset=0mil|HoleType=Round|Shape=Rectangle|*
%AMROTATEDRECTD232*
4,1,4,0.01871,0.00013,0.00503,-0.01802,-0.01871,-0.00013,-0.00503,0.01802,0.01871,0.00013,0.0*
%
%ADD232ROTATEDRECTD232*%

%ADD233R,0.02272X0.02972*%
G04:AMPARAMS|DCode=234|XSize=29.72mil|YSize=22.72mil|CornerRadius=0mil|HoleSize=0mil|Usage=FLASHONLY|Rotation=88.000|XOffset=0mil|YOffset=0mil|HoleType=Round|Shape=Rectangle|*
%AMROTATEDRECTD234*
4,1,4,0.01084,-0.01525,-0.01187,-0.01446,-0.01084,0.01525,0.01187,0.01446,0.01084,-0.01525,0.0*
%
%ADD234ROTATEDRECTD234*%

G04:AMPARAMS|DCode=235|XSize=29.72mil|YSize=22.72mil|CornerRadius=0mil|HoleSize=0mil|Usage=FLASHONLY|Rotation=36.000|XOffset=0mil|YOffset=0mil|HoleType=Round|Shape=Rectangle|*
%AMROTATEDRECTD235*
4,1,4,-0.00535,-0.01793,-0.01870,0.00046,0.00535,0.01793,0.01870,-0.00046,-0.00535,-0.01793,0.0*
%
%ADD235ROTATEDRECTD235*%

G04:AMPARAMS|DCode=236|XSize=29.72mil|YSize=22.72mil|CornerRadius=0mil|HoleSize=0mil|Usage=FLASHONLY|Rotation=42.000|XOffset=0mil|YOffset=0mil|HoleType=Round|Shape=Rectangle|*
%AMROTATEDRECTD236*
4,1,4,-0.00344,-0.01839,-0.01865,-0.00150,0.00344,0.01839,0.01865,0.00150,-0.00344,-0.01839,0.0*
%
%ADD236ROTATEDRECTD236*%

%ADD237R,0.03800X0.04300*%
G04:AMPARAMS|DCode=238|XSize=67.06mil|YSize=47.37mil|CornerRadius=0mil|HoleSize=0mil|Usage=FLASHONLY|Rotation=166.000|XOffset=0mil|YOffset=0mil|HoleType=Round|Shape=Rectangle|*
%AMROTATEDRECTD238*
4,1,4,0.03826,0.01487,0.02680,-0.03109,-0.03826,-0.01487,-0.02680,0.03109,0.03826,0.01487,0.0*
%
%ADD238ROTATEDRECTD238*%

G04:AMPARAMS|DCode=239|XSize=29.72mil|YSize=22.72mil|CornerRadius=0mil|HoleSize=0mil|Usage=FLASHONLY|Rotation=124.000|XOffset=0mil|YOffset=0mil|HoleType=Round|Shape=Rectangle|*
%AMROTATEDRECTD239*
4,1,4,0.01773,-0.00597,-0.00111,-0.01868,-0.01773,0.00597,0.00111,0.01868,0.01773,-0.00597,0.0*
%
%ADD239ROTATEDRECTD239*%

G04:AMPARAMS|DCode=240|XSize=67.06mil|YSize=47.37mil|CornerRadius=0mil|HoleSize=0mil|Usage=FLASHONLY|Rotation=214.000|XOffset=0mil|YOffset=0mil|HoleType=Round|Shape=Rectangle|*
%AMROTATEDRECTD240*
4,1,4,0.01455,0.03838,0.04104,-0.00089,-0.01455,-0.03838,-0.04104,0.00089,0.01455,0.03838,0.0*
%
%ADD240ROTATEDRECTD240*%

G04:AMPARAMS|DCode=241|XSize=29.72mil|YSize=22.72mil|CornerRadius=0mil|HoleSize=0mil|Usage=FLASHONLY|Rotation=165.000|XOffset=0mil|YOffset=0mil|HoleType=Round|Shape=Rectangle|*
%AMROTATEDRECTD241*
4,1,4,0.01730,0.00713,0.01141,-0.01482,-0.01730,-0.00713,-0.01141,0.01482,0.01730,0.00713,0.0*
%
%ADD241ROTATEDRECTD241*%

G04:AMPARAMS|DCode=242|XSize=29.72mil|YSize=22.72mil|CornerRadius=0mil|HoleSize=0mil|Usage=FLASHONLY|Rotation=277.000|XOffset=0mil|YOffset=0mil|HoleType=Round|Shape=Rectangle|*
%AMROTATEDRECTD242*
4,1,4,-0.01309,0.01337,0.00947,0.01614,0.01309,-0.01337,-0.00947,-0.01614,-0.01309,0.01337,0.0*
%
%ADD242ROTATEDRECTD242*%

G04:AMPARAMS|DCode=243|XSize=67.06mil|YSize=47.37mil|CornerRadius=0mil|HoleSize=0mil|Usage=FLASHONLY|Rotation=67.000|XOffset=0mil|YOffset=0mil|HoleType=Round|Shape=Rectangle|*
%AMROTATEDRECTD243*
4,1,4,0.00870,-0.04012,-0.03490,-0.02161,-0.00870,0.04012,0.03490,0.02161,0.00870,-0.04012,0.0*
%
%ADD243ROTATEDRECTD243*%

G04:AMPARAMS|DCode=244|XSize=67.06mil|YSize=47.37mil|CornerRadius=0mil|HoleSize=0mil|Usage=FLASHONLY|Rotation=268.000|XOffset=0mil|YOffset=0mil|HoleType=Round|Shape=Rectangle|*
%AMROTATEDRECTD244*
4,1,4,-0.02250,0.03433,0.02484,0.03268,0.02250,-0.03433,-0.02484,-0.03268,-0.02250,0.03433,0.0*
%
%ADD244ROTATEDRECTD244*%

G04:AMPARAMS|DCode=245|XSize=67.06mil|YSize=47.37mil|CornerRadius=0mil|HoleSize=0mil|Usage=FLASHONLY|Rotation=224.000|XOffset=0mil|YOffset=0mil|HoleType=Round|Shape=Rectangle|*
%AMROTATEDRECTD245*
4,1,4,0.00767,0.04033,0.04057,0.00625,-0.00767,-0.04033,-0.04057,-0.00625,0.00767,0.04033,0.0*
%
%ADD245ROTATEDRECTD245*%

G04:AMPARAMS|DCode=246|XSize=29.72mil|YSize=22.72mil|CornerRadius=0mil|HoleSize=0mil|Usage=FLASHONLY|Rotation=134.000|XOffset=0mil|YOffset=0mil|HoleType=Round|Shape=Rectangle|*
%AMROTATEDRECTD246*
4,1,4,0.01850,-0.00280,0.00215,-0.01858,-0.01850,0.00280,-0.00215,0.01858,0.01850,-0.00280,0.0*
%
%ADD246ROTATEDRECTD246*%

G04:AMPARAMS|DCode=247|XSize=67.06mil|YSize=47.37mil|CornerRadius=0mil|HoleSize=0mil|Usage=FLASHONLY|Rotation=201.000|XOffset=0mil|YOffset=0mil|HoleType=Round|Shape=Rectangle|*
%AMROTATEDRECTD247*
4,1,4,0.02281,0.03413,0.03979,-0.01010,-0.02281,-0.03413,-0.03979,0.01010,0.02281,0.03413,0.0*
%
%ADD247ROTATEDRECTD247*%

G04:AMPARAMS|DCode=248|XSize=67.06mil|YSize=47.37mil|CornerRadius=0mil|HoleSize=0mil|Usage=FLASHONLY|Rotation=228.000|XOffset=0mil|YOffset=0mil|HoleType=Round|Shape=Rectangle|*
%AMROTATEDRECTD248*
4,1,4,0.00483,0.04076,0.04004,0.00907,-0.00483,-0.04076,-0.04004,-0.00907,0.00483,0.04076,0.0*
%
%ADD248ROTATEDRECTD248*%

G04:AMPARAMS|DCode=249|XSize=67.06mil|YSize=47.37mil|CornerRadius=0mil|HoleSize=0mil|Usage=FLASHONLY|Rotation=255.000|XOffset=0mil|YOffset=0mil|HoleType=Round|Shape=Rectangle|*
%AMROTATEDRECTD249*
4,1,4,-0.01420,0.03852,0.03156,0.02626,0.01420,-0.03852,-0.03156,-0.02626,-0.01420,0.03852,0.0*
%
%ADD249ROTATEDRECTD249*%

G04:AMPARAMS|DCode=250|XSize=67.06mil|YSize=47.37mil|CornerRadius=0mil|HoleSize=0mil|Usage=FLASHONLY|Rotation=193.000|XOffset=0mil|YOffset=0mil|HoleType=Round|Shape=Rectangle|*
%AMROTATEDRECTD250*
4,1,4,0.02734,0.03062,0.03800,-0.01554,-0.02734,-0.03062,-0.03800,0.01554,0.02734,0.03062,0.0*
%
%ADD250ROTATEDRECTD250*%

G04:AMPARAMS|DCode=251|XSize=67.06mil|YSize=47.37mil|CornerRadius=0mil|HoleSize=0mil|Usage=FLASHONLY|Rotation=221.000|XOffset=0mil|YOffset=0mil|HoleType=Round|Shape=Rectangle|*
%AMROTATEDRECTD251*
4,1,4,0.00977,0.03987,0.04084,0.00412,-0.00977,-0.03987,-0.04084,-0.00412,0.00977,0.03987,0.0*
%
%ADD251ROTATEDRECTD251*%

G04:AMPARAMS|DCode=252|XSize=67.06mil|YSize=47.37mil|CornerRadius=0mil|HoleSize=0mil|Usage=FLASHONLY|Rotation=248.000|XOffset=0mil|YOffset=0mil|HoleType=Round|Shape=Rectangle|*
%AMROTATEDRECTD252*
4,1,4,-0.00940,0.03996,0.03452,0.02221,0.00940,-0.03996,-0.03452,-0.02221,-0.00940,0.03996,0.0*
%
%ADD252ROTATEDRECTD252*%

G04:AMPARAMS|DCode=253|XSize=67.06mil|YSize=47.37mil|CornerRadius=0mil|HoleSize=0mil|Usage=FLASHONLY|Rotation=186.000|XOffset=0mil|YOffset=0mil|HoleType=Round|Shape=Rectangle|*
%AMROTATEDRECTD253*
4,1,4,0.03087,0.02706,0.03582,-0.02005,-0.03087,-0.02706,-0.03582,0.02005,0.03087,0.02706,0.0*
%
%ADD253ROTATEDRECTD253*%

G04:AMPARAMS|DCode=254|XSize=67.06mil|YSize=47.37mil|CornerRadius=0mil|HoleSize=0mil|Usage=FLASHONLY|Rotation=208.000|XOffset=0mil|YOffset=0mil|HoleType=Round|Shape=Rectangle|*
%AMROTATEDRECTD254*
4,1,4,0.01848,0.03665,0.04072,-0.00517,-0.01848,-0.03665,-0.04072,0.00517,0.01848,0.03665,0.0*
%
%ADD254ROTATEDRECTD254*%

%ADD255R,0.06706X0.04737*%
G04:AMPARAMS|DCode=256|XSize=67.06mil|YSize=47.37mil|CornerRadius=0mil|HoleSize=0mil|Usage=FLASHONLY|Rotation=234.000|XOffset=0mil|YOffset=0mil|HoleType=Round|Shape=Rectangle|*
%AMROTATEDRECTD256*
4,1,4,0.00055,0.04105,0.03887,0.01320,-0.00055,-0.04105,-0.03887,-0.01320,0.00055,0.04105,0.0*
%
%ADD256ROTATEDRECTD256*%

G04:AMPARAMS|DCode=257|XSize=67.06mil|YSize=47.37mil|CornerRadius=0mil|HoleSize=0mil|Usage=FLASHONLY|Rotation=311.000|XOffset=0mil|YOffset=0mil|HoleType=Round|Shape=Rectangle|*
%AMROTATEDRECTD257*
4,1,4,-0.03987,0.00977,-0.00412,0.04084,0.03987,-0.00977,0.00412,-0.04084,-0.03987,0.00977,0.0*
%
%ADD257ROTATEDRECTD257*%

G04:AMPARAMS|DCode=258|XSize=67.06mil|YSize=47.37mil|CornerRadius=0mil|HoleSize=0mil|Usage=FLASHONLY|Rotation=337.000|XOffset=0mil|YOffset=0mil|HoleType=Round|Shape=Rectangle|*
%AMROTATEDRECTD258*
4,1,4,-0.04012,-0.00870,-0.02161,0.03490,0.04012,0.00870,0.02161,-0.03490,-0.04012,-0.00870,0.0*
%
%ADD258ROTATEDRECTD258*%

G04:AMPARAMS|DCode=259|XSize=67.06mil|YSize=47.37mil|CornerRadius=0mil|HoleSize=0mil|Usage=FLASHONLY|Rotation=277.000|XOffset=0mil|YOffset=0mil|HoleType=Round|Shape=Rectangle|*
%AMROTATEDRECTD259*
4,1,4,-0.02759,0.03039,0.01942,0.03616,0.02759,-0.03039,-0.01942,-0.03616,-0.02759,0.03039,0.0*
%
%ADD259ROTATEDRECTD259*%

G04:AMPARAMS|DCode=260|XSize=67.06mil|YSize=47.37mil|CornerRadius=0mil|HoleSize=0mil|Usage=FLASHONLY|Rotation=304.000|XOffset=0mil|YOffset=0mil|HoleType=Round|Shape=Rectangle|*
%AMROTATEDRECTD260*
4,1,4,-0.03838,0.01455,0.00089,0.04104,0.03838,-0.01455,-0.00089,-0.04104,-0.03838,0.01455,0.0*
%
%ADD260ROTATEDRECTD260*%

G04:AMPARAMS|DCode=261|XSize=67.06mil|YSize=47.37mil|CornerRadius=0mil|HoleSize=0mil|Usage=FLASHONLY|Rotation=331.000|XOffset=0mil|YOffset=0mil|HoleType=Round|Shape=Rectangle|*
%AMROTATEDRECTD261*
4,1,4,-0.04081,-0.00446,-0.01784,0.03697,0.04081,0.00446,0.01784,-0.03697,-0.04081,-0.00446,0.0*
%
%ADD261ROTATEDRECTD261*%

%ADD262R,0.04737X0.06706*%
G04:AMPARAMS|DCode=263|XSize=67.06mil|YSize=47.37mil|CornerRadius=0mil|HoleSize=0mil|Usage=FLASHONLY|Rotation=297.000|XOffset=0mil|YOffset=0mil|HoleType=Round|Shape=Rectangle|*
%AMROTATEDRECTD263*
4,1,4,-0.03633,0.01912,0.00588,0.04063,0.03633,-0.01912,-0.00588,-0.04063,-0.03633,0.01912,0.0*
%
%ADD263ROTATEDRECTD263*%

G04:AMPARAMS|DCode=264|XSize=67.06mil|YSize=47.37mil|CornerRadius=0mil|HoleSize=0mil|Usage=FLASHONLY|Rotation=325.000|XOffset=0mil|YOffset=0mil|HoleType=Round|Shape=Rectangle|*
%AMROTATEDRECTD264*
4,1,4,-0.04105,-0.00017,-0.01388,0.03863,0.04105,0.00017,0.01388,-0.03863,-0.04105,-0.00017,0.0*
%
%ADD264ROTATEDRECTD264*%

G04:AMPARAMS|DCode=265|XSize=67.06mil|YSize=47.37mil|CornerRadius=0mil|HoleSize=0mil|Usage=FLASHONLY|Rotation=263.000|XOffset=0mil|YOffset=0mil|HoleType=Round|Shape=Rectangle|*
%AMROTATEDRECTD265*
4,1,4,-0.01942,0.03616,0.02759,0.03039,0.01942,-0.03616,-0.02759,-0.03039,-0.01942,0.03616,0.0*
%
%ADD265ROTATEDRECTD265*%

G04:AMPARAMS|DCode=266|XSize=67.06mil|YSize=47.37mil|CornerRadius=0mil|HoleSize=0mil|Usage=FLASHONLY|Rotation=290.000|XOffset=0mil|YOffset=0mil|HoleType=Round|Shape=Rectangle|*
%AMROTATEDRECTD266*
4,1,4,-0.03372,0.02341,0.01079,0.03961,0.03372,-0.02341,-0.01079,-0.03961,-0.03372,0.02341,0.0*
%
%ADD266ROTATEDRECTD266*%

G04:AMPARAMS|DCode=267|XSize=67.06mil|YSize=47.37mil|CornerRadius=0mil|HoleSize=0mil|Usage=FLASHONLY|Rotation=319.000|XOffset=0mil|YOffset=0mil|HoleType=Round|Shape=Rectangle|*
%AMROTATEDRECTD267*
4,1,4,-0.04084,0.00412,-0.00977,0.03987,0.04084,-0.00412,0.00977,-0.03987,-0.04084,0.00412,0.0*
%
%ADD267ROTATEDRECTD267*%

G04:AMPARAMS|DCode=268|XSize=67.06mil|YSize=47.37mil|CornerRadius=0mil|HoleSize=0mil|Usage=FLASHONLY|Rotation=7.000|XOffset=0mil|YOffset=0mil|HoleType=Round|Shape=Rectangle|*
%AMROTATEDRECTD268*
4,1,4,-0.03039,-0.02759,-0.03616,0.01942,0.03039,0.02759,0.03616,-0.01942,-0.03039,-0.02759,0.0*
%
%ADD268ROTATEDRECTD268*%

G04:AMPARAMS|DCode=269|XSize=67.06mil|YSize=47.37mil|CornerRadius=0mil|HoleSize=0mil|Usage=FLASHONLY|Rotation=40.000|XOffset=0mil|YOffset=0mil|HoleType=Round|Shape=Rectangle|*
%AMROTATEDRECTD269*
4,1,4,-0.01046,-0.03970,-0.04091,-0.00341,0.01046,0.03970,0.04091,0.00341,-0.01046,-0.03970,0.0*
%
%ADD269ROTATEDRECTD269*%

G04:AMPARAMS|DCode=270|XSize=67.06mil|YSize=47.37mil|CornerRadius=0mil|HoleSize=0mil|Usage=FLASHONLY|Rotation=352.000|XOffset=0mil|YOffset=0mil|HoleType=Round|Shape=Rectangle|*
%AMROTATEDRECTD270*
4,1,4,-0.03650,-0.01879,-0.02991,0.02812,0.03650,0.01879,0.02991,-0.02812,-0.03650,-0.01879,0.0*
%
%ADD270ROTATEDRECTD270*%

G04:AMPARAMS|DCode=271|XSize=67.06mil|YSize=47.37mil|CornerRadius=0mil|HoleSize=0mil|Usage=FLASHONLY|Rotation=60.000|XOffset=0mil|YOffset=0mil|HoleType=Round|Shape=Rectangle|*
%AMROTATEDRECTD271*
4,1,4,0.00375,-0.04088,-0.03728,-0.01719,-0.00375,0.04088,0.03728,0.01719,0.00375,-0.04088,0.0*
%
%ADD271ROTATEDRECTD271*%

G04:AMPARAMS|DCode=272|XSize=67.06mil|YSize=47.37mil|CornerRadius=0mil|HoleSize=0mil|Usage=FLASHONLY|Rotation=344.000|XOffset=0mil|YOffset=0mil|HoleType=Round|Shape=Rectangle|*
%AMROTATEDRECTD272*
4,1,4,-0.03876,-0.01353,-0.02570,0.03201,0.03876,0.01353,0.02570,-0.03201,-0.03876,-0.01353,0.0*
%
%ADD272ROTATEDRECTD272*%

G04:AMPARAMS|DCode=273|XSize=67.06mil|YSize=47.37mil|CornerRadius=0mil|HoleSize=0mil|Usage=FLASHONLY|Rotation=20.000|XOffset=0mil|YOffset=0mil|HoleType=Round|Shape=Rectangle|*
%AMROTATEDRECTD273*
4,1,4,-0.02341,-0.03372,-0.03961,0.01079,0.02341,0.03372,0.03961,-0.01079,-0.02341,-0.03372,0.0*
%
%ADD273ROTATEDRECTD273*%

G04:AMPARAMS|DCode=274|XSize=67.06mil|YSize=47.37mil|CornerRadius=0mil|HoleSize=0mil|Usage=FLASHONLY|Rotation=53.000|XOffset=0mil|YOffset=0mil|HoleType=Round|Shape=Rectangle|*
%AMROTATEDRECTD274*
4,1,4,-0.00126,-0.04103,-0.03909,-0.01252,0.00126,0.04103,0.03909,0.01252,-0.00126,-0.04103,0.0*
%
%ADD274ROTATEDRECTD274*%

G04:AMPARAMS|DCode=275|XSize=67.06mil|YSize=47.37mil|CornerRadius=0mil|HoleSize=0mil|Usage=FLASHONLY|Rotation=104.000|XOffset=0mil|YOffset=0mil|HoleType=Round|Shape=Rectangle|*
%AMROTATEDRECTD275*
4,1,4,0.03109,-0.02680,-0.01487,-0.03826,-0.03109,0.02680,0.01487,0.03826,0.03109,-0.02680,0.0*
%
%ADD275ROTATEDRECTD275*%

G04:AMPARAMS|DCode=276|XSize=67.06mil|YSize=47.37mil|CornerRadius=0mil|HoleSize=0mil|Usage=FLASHONLY|Rotation=138.000|XOffset=0mil|YOffset=0mil|HoleType=Round|Shape=Rectangle|*
%AMROTATEDRECTD276*
4,1,4,0.04076,-0.00483,0.00907,-0.04004,-0.04076,0.00483,-0.00907,0.04004,0.04076,-0.00483,0.0*
%
%ADD276ROTATEDRECTD276*%

G04:AMPARAMS|DCode=277|XSize=67.06mil|YSize=47.37mil|CornerRadius=0mil|HoleSize=0mil|Usage=FLASHONLY|Rotation=96.000|XOffset=0mil|YOffset=0mil|HoleType=Round|Shape=Rectangle|*
%AMROTATEDRECTD277*
4,1,4,0.02706,-0.03087,-0.02005,-0.03582,-0.02706,0.03087,0.02005,0.03582,0.02706,-0.03087,0.0*
%
%ADD277ROTATEDRECTD277*%

G04:AMPARAMS|DCode=278|XSize=67.06mil|YSize=47.37mil|CornerRadius=0mil|HoleSize=0mil|Usage=FLASHONLY|Rotation=89.000|XOffset=0mil|YOffset=0mil|HoleType=Round|Shape=Rectangle|*
%AMROTATEDRECTD278*
4,1,4,0.02310,-0.03394,-0.02427,-0.03311,-0.02310,0.03394,0.02427,0.03311,0.02310,-0.03394,0.0*
%
%ADD278ROTATEDRECTD278*%

G04:AMPARAMS|DCode=279|XSize=67.06mil|YSize=47.37mil|CornerRadius=0mil|HoleSize=0mil|Usage=FLASHONLY|Rotation=159.000|XOffset=0mil|YOffset=0mil|HoleType=Round|Shape=Rectangle|*
%AMROTATEDRECTD279*
4,1,4,0.03979,0.01010,0.02281,-0.03413,-0.03979,-0.01010,-0.02281,0.03413,0.03979,0.01010,0.0*
%
%ADD279ROTATEDRECTD279*%

G04:AMPARAMS|DCode=280|XSize=67.06mil|YSize=47.37mil|CornerRadius=0mil|HoleSize=0mil|Usage=FLASHONLY|Rotation=125.000|XOffset=0mil|YOffset=0mil|HoleType=Round|Shape=Rectangle|*
%AMROTATEDRECTD280*
4,1,4,0.03863,-0.01388,-0.00017,-0.04105,-0.03863,0.01388,0.00017,0.04105,0.03863,-0.01388,0.0*
%
%ADD280ROTATEDRECTD280*%

G04:AMPARAMS|DCode=281|XSize=67.06mil|YSize=47.37mil|CornerRadius=0mil|HoleSize=0mil|Usage=FLASHONLY|Rotation=80.000|XOffset=0mil|YOffset=0mil|HoleType=Round|Shape=Rectangle|*
%AMROTATEDRECTD281*
4,1,4,0.01750,-0.03713,-0.02915,-0.02891,-0.01750,0.03713,0.02915,0.02891,0.01750,-0.03713,0.0*
%
%ADD281ROTATEDRECTD281*%

G04:AMPARAMS|DCode=282|XSize=67.06mil|YSize=47.37mil|CornerRadius=0mil|HoleSize=0mil|Usage=FLASHONLY|Rotation=153.000|XOffset=0mil|YOffset=0mil|HoleType=Round|Shape=Rectangle|*
%AMROTATEDRECTD282*
4,1,4,0.04063,0.00588,0.01912,-0.03633,-0.04063,-0.00588,-0.01912,0.03633,0.04063,0.00588,0.0*
%
%ADD282ROTATEDRECTD282*%

G04:AMPARAMS|DCode=283|XSize=67.06mil|YSize=47.37mil|CornerRadius=0mil|HoleSize=0mil|Usage=FLASHONLY|Rotation=146.000|XOffset=0mil|YOffset=0mil|HoleType=Round|Shape=Rectangle|*
%AMROTATEDRECTD283*
4,1,4,0.04104,0.00089,0.01455,-0.03838,-0.04104,-0.00089,-0.01455,0.03838,0.04104,0.00089,0.0*
%
%ADD283ROTATEDRECTD283*%

G04:AMPARAMS|DCode=284|XSize=67.06mil|YSize=47.37mil|CornerRadius=0mil|HoleSize=0mil|Usage=FLASHONLY|Rotation=198.000|XOffset=0mil|YOffset=0mil|HoleType=Round|Shape=Rectangle|*
%AMROTATEDRECTD284*
4,1,4,0.02457,0.03289,0.03921,-0.01217,-0.02457,-0.03289,-0.03921,0.01217,0.02457,0.03289,0.0*
%
%ADD284ROTATEDRECTD284*%

G04:AMPARAMS|DCode=285|XSize=67.06mil|YSize=47.37mil|CornerRadius=0mil|HoleSize=0mil|Usage=FLASHONLY|Rotation=190.000|XOffset=0mil|YOffset=0mil|HoleType=Round|Shape=Rectangle|*
%AMROTATEDRECTD285*
4,1,4,0.02891,0.02915,0.03713,-0.01750,-0.02891,-0.02915,-0.03713,0.01750,0.02891,0.02915,0.0*
%
%ADD285ROTATEDRECTD285*%

G04:AMPARAMS|DCode=286|XSize=67.06mil|YSize=47.37mil|CornerRadius=0mil|HoleSize=0mil|Usage=FLASHONLY|Rotation=225.000|XOffset=0mil|YOffset=0mil|HoleType=Round|Shape=Rectangle|*
%AMROTATEDRECTD286*
4,1,4,0.00696,0.04046,0.04046,0.00696,-0.00696,-0.04046,-0.04046,-0.00696,0.00696,0.04046,0.0*
%
%ADD286ROTATEDRECTD286*%

G04:AMPARAMS|DCode=287|XSize=67.06mil|YSize=47.37mil|CornerRadius=0mil|HoleSize=0mil|Usage=FLASHONLY|Rotation=216.000|XOffset=0mil|YOffset=0mil|HoleType=Round|Shape=Rectangle|*
%AMROTATEDRECTD287*
4,1,4,0.01320,0.03887,0.04105,0.00055,-0.01320,-0.03887,-0.04105,-0.00055,0.01320,0.03887,0.0*
%
%ADD287ROTATEDRECTD287*%

G04:AMPARAMS|DCode=288|XSize=67.06mil|YSize=47.37mil|CornerRadius=0mil|HoleSize=0mil|Usage=FLASHONLY|Rotation=259.000|XOffset=0mil|YOffset=0mil|HoleType=Round|Shape=Rectangle|*
%AMROTATEDRECTD288*
4,1,4,-0.01685,0.03743,0.02965,0.02839,0.01685,-0.03743,-0.02965,-0.02839,-0.01685,0.03743,0.0*
%
%ADD288ROTATEDRECTD288*%

G04:AMPARAMS|DCode=289|XSize=67.06mil|YSize=47.37mil|CornerRadius=0mil|HoleSize=0mil|Usage=FLASHONLY|Rotation=170.000|XOffset=0mil|YOffset=0mil|HoleType=Round|Shape=Rectangle|*
%AMROTATEDRECTD289*
4,1,4,0.03713,0.01750,0.02891,-0.02915,-0.03713,-0.01750,-0.02891,0.02915,0.03713,0.01750,0.0*
%
%ADD289ROTATEDRECTD289*%

G04:AMPARAMS|DCode=290|XSize=67.06mil|YSize=47.37mil|CornerRadius=0mil|HoleSize=0mil|Usage=FLASHONLY|Rotation=250.000|XOffset=0mil|YOffset=0mil|HoleType=Round|Shape=Rectangle|*
%AMROTATEDRECTD290*
4,1,4,-0.01079,0.03961,0.03372,0.02341,0.01079,-0.03961,-0.03372,-0.02341,-0.01079,0.03961,0.0*
%
%ADD290ROTATEDRECTD290*%

G04:AMPARAMS|DCode=291|XSize=67.06mil|YSize=47.37mil|CornerRadius=0mil|HoleSize=0mil|Usage=FLASHONLY|Rotation=242.000|XOffset=0mil|YOffset=0mil|HoleType=Round|Shape=Rectangle|*
%AMROTATEDRECTD291*
4,1,4,-0.00517,0.04072,0.03665,0.01848,0.00517,-0.04072,-0.03665,-0.01848,-0.00517,0.04072,0.0*
%
%ADD291ROTATEDRECTD291*%

G04:AMPARAMS|DCode=292|XSize=67.06mil|YSize=47.37mil|CornerRadius=0mil|HoleSize=0mil|Usage=FLASHONLY|Rotation=310.000|XOffset=0mil|YOffset=0mil|HoleType=Round|Shape=Rectangle|*
%AMROTATEDRECTD292*
4,1,4,-0.03970,0.01046,-0.00341,0.04091,0.03970,-0.01046,0.00341,-0.04091,-0.03970,0.01046,0.0*
%
%ADD292ROTATEDRECTD292*%

G04:AMPARAMS|DCode=293|XSize=67.06mil|YSize=47.37mil|CornerRadius=0mil|HoleSize=0mil|Usage=FLASHONLY|Rotation=26.000|XOffset=0mil|YOffset=0mil|HoleType=Round|Shape=Rectangle|*
%AMROTATEDRECTD293*
4,1,4,-0.01975,-0.03599,-0.04052,0.00659,0.01975,0.03599,0.04052,-0.00659,-0.01975,-0.03599,0.0*
%
%ADD293ROTATEDRECTD293*%

G04:AMPARAMS|DCode=294|XSize=67.06mil|YSize=47.37mil|CornerRadius=0mil|HoleSize=0mil|Usage=FLASHONLY|Rotation=302.000|XOffset=0mil|YOffset=0mil|HoleType=Round|Shape=Rectangle|*
%AMROTATEDRECTD294*
4,1,4,-0.03785,0.01588,0.00232,0.04098,0.03785,-0.01588,-0.00232,-0.04098,-0.03785,0.01588,0.0*
%
%ADD294ROTATEDRECTD294*%

G04:AMPARAMS|DCode=295|XSize=67.06mil|YSize=47.37mil|CornerRadius=0mil|HoleSize=0mil|Usage=FLASHONLY|Rotation=335.000|XOffset=0mil|YOffset=0mil|HoleType=Round|Shape=Rectangle|*
%AMROTATEDRECTD295*
4,1,4,-0.04040,-0.00730,-0.02038,0.03564,0.04040,0.00730,0.02038,-0.03564,-0.04040,-0.00730,0.0*
%
%ADD295ROTATEDRECTD295*%

G04:AMPARAMS|DCode=296|XSize=67.06mil|YSize=47.37mil|CornerRadius=0mil|HoleSize=0mil|Usage=FLASHONLY|Rotation=294.000|XOffset=0mil|YOffset=0mil|HoleType=Round|Shape=Rectangle|*
%AMROTATEDRECTD296*
4,1,4,-0.03527,0.02100,0.00800,0.04026,0.03527,-0.02100,-0.00800,-0.04026,-0.03527,0.02100,0.0*
%
%ADD296ROTATEDRECTD296*%

G04:AMPARAMS|DCode=297|XSize=67.06mil|YSize=47.37mil|CornerRadius=0mil|HoleSize=0mil|Usage=FLASHONLY|Rotation=327.000|XOffset=0mil|YOffset=0mil|HoleType=Round|Shape=Rectangle|*
%AMROTATEDRECTD297*
4,1,4,-0.04102,-0.00160,-0.01522,0.03812,0.04102,0.00160,0.01522,-0.03812,-0.04102,-0.00160,0.0*
%
%ADD297ROTATEDRECTD297*%

G04:AMPARAMS|DCode=298|XSize=67.06mil|YSize=47.37mil|CornerRadius=0mil|HoleSize=0mil|Usage=FLASHONLY|Rotation=1.000|XOffset=0mil|YOffset=0mil|HoleType=Round|Shape=Rectangle|*
%AMROTATEDRECTD298*
4,1,4,-0.03311,-0.02427,-0.03394,0.02310,0.03311,0.02427,0.03394,-0.02310,-0.03311,-0.02427,0.0*
%
%ADD298ROTATEDRECTD298*%

G04:AMPARAMS|DCode=299|XSize=67.06mil|YSize=47.37mil|CornerRadius=0mil|HoleSize=0mil|Usage=FLASHONLY|Rotation=160.000|XOffset=0mil|YOffset=0mil|HoleType=Round|Shape=Rectangle|*
%AMROTATEDRECTD299*
4,1,4,0.03961,0.01079,0.02341,-0.03372,-0.03961,-0.01079,-0.02341,0.03372,0.03961,0.01079,0.0*
%
%ADD299ROTATEDRECTD299*%

G04:AMPARAMS|DCode=300|XSize=67.06mil|YSize=47.37mil|CornerRadius=0mil|HoleSize=0mil|Usage=FLASHONLY|Rotation=152.000|XOffset=0mil|YOffset=0mil|HoleType=Round|Shape=Rectangle|*
%AMROTATEDRECTD300*
4,1,4,0.04072,0.00517,0.01848,-0.03665,-0.04072,-0.00517,-0.01848,0.03665,0.04072,0.00517,0.0*
%
%ADD300ROTATEDRECTD300*%

G04:AMPARAMS|DCode=301|XSize=67.06mil|YSize=47.37mil|CornerRadius=0mil|HoleSize=0mil|Usage=FLASHONLY|Rotation=58.000|XOffset=0mil|YOffset=0mil|HoleType=Round|Shape=Rectangle|*
%AMROTATEDRECTD301*
4,1,4,0.00232,-0.04098,-0.03785,-0.01588,-0.00232,0.04098,0.03785,0.01588,0.00232,-0.04098,0.0*
%
%ADD301ROTATEDRECTD301*%

G04:AMPARAMS|DCode=302|XSize=67.06mil|YSize=47.37mil|CornerRadius=0mil|HoleSize=0mil|Usage=FLASHONLY|Rotation=101.000|XOffset=0mil|YOffset=0mil|HoleType=Round|Shape=Rectangle|*
%AMROTATEDRECTD302*
4,1,4,0.02965,-0.02839,-0.01685,-0.03743,-0.02965,0.02839,0.01685,0.03743,0.02965,-0.02839,0.0*
%
%ADD302ROTATEDRECTD302*%

G04:AMPARAMS|DCode=303|XSize=67.06mil|YSize=47.37mil|CornerRadius=0mil|HoleSize=0mil|Usage=FLASHONLY|Rotation=144.000|XOffset=0mil|YOffset=0mil|HoleType=Round|Shape=Rectangle|*
%AMROTATEDRECTD303*
4,1,4,0.04105,-0.00055,0.01320,-0.03887,-0.04105,0.00055,-0.01320,0.03887,0.04105,-0.00055,0.0*
%
%ADD303ROTATEDRECTD303*%

G04:AMPARAMS|DCode=304|XSize=67.06mil|YSize=47.37mil|CornerRadius=0mil|HoleSize=0mil|Usage=FLASHONLY|Rotation=51.000|XOffset=0mil|YOffset=0mil|HoleType=Round|Shape=Rectangle|*
%AMROTATEDRECTD304*
4,1,4,-0.00269,-0.04096,-0.03951,-0.01115,0.00269,0.04096,0.03951,0.01115,-0.00269,-0.04096,0.0*
%
%ADD304ROTATEDRECTD304*%

G04:AMPARAMS|DCode=305|XSize=67.06mil|YSize=47.37mil|CornerRadius=0mil|HoleSize=0mil|Usage=FLASHONLY|Rotation=92.000|XOffset=0mil|YOffset=0mil|HoleType=Round|Shape=Rectangle|*
%AMROTATEDRECTD305*
4,1,4,0.02484,-0.03268,-0.02250,-0.03433,-0.02484,0.03268,0.02250,0.03433,0.02484,-0.03268,0.0*
%
%ADD305ROTATEDRECTD305*%

G04:AMPARAMS|DCode=306|XSize=67.06mil|YSize=47.37mil|CornerRadius=0mil|HoleSize=0mil|Usage=FLASHONLY|Rotation=135.000|XOffset=0mil|YOffset=0mil|HoleType=Round|Shape=Rectangle|*
%AMROTATEDRECTD306*
4,1,4,0.04046,-0.00696,0.00696,-0.04046,-0.04046,0.00696,-0.00696,0.04046,0.04046,-0.00696,0.0*
%
%ADD306ROTATEDRECTD306*%

G04:AMPARAMS|DCode=307|XSize=67.06mil|YSize=47.37mil|CornerRadius=0mil|HoleSize=0mil|Usage=FLASHONLY|Rotation=42.000|XOffset=0mil|YOffset=0mil|HoleType=Round|Shape=Rectangle|*
%AMROTATEDRECTD307*
4,1,4,-0.00907,-0.04004,-0.04076,-0.00483,0.00907,0.04004,0.04076,0.00483,-0.00907,-0.04004,0.0*
%
%ADD307ROTATEDRECTD307*%

G04:AMPARAMS|DCode=308|XSize=67.06mil|YSize=47.37mil|CornerRadius=0mil|HoleSize=0mil|Usage=FLASHONLY|Rotation=85.000|XOffset=0mil|YOffset=0mil|HoleType=Round|Shape=Rectangle|*
%AMROTATEDRECTD308*
4,1,4,0.02067,-0.03546,-0.02652,-0.03134,-0.02067,0.03546,0.02652,0.03134,0.02067,-0.03546,0.0*
%
%ADD308ROTATEDRECTD308*%

G04:AMPARAMS|DCode=309|XSize=67.06mil|YSize=47.37mil|CornerRadius=0mil|HoleSize=0mil|Usage=FLASHONLY|Rotation=126.000|XOffset=0mil|YOffset=0mil|HoleType=Round|Shape=Rectangle|*
%AMROTATEDRECTD309*
4,1,4,0.03887,-0.01320,0.00055,-0.04105,-0.03887,0.01320,-0.00055,0.04105,0.03887,-0.01320,0.0*
%
%ADD309ROTATEDRECTD309*%

G04:AMPARAMS|DCode=310|XSize=67.06mil|YSize=47.37mil|CornerRadius=0mil|HoleSize=0mil|Usage=FLASHONLY|Rotation=35.000|XOffset=0mil|YOffset=0mil|HoleType=Round|Shape=Rectangle|*
%AMROTATEDRECTD310*
4,1,4,-0.01388,-0.03863,-0.04105,0.00017,0.01388,0.03863,0.04105,-0.00017,-0.01388,-0.03863,0.0*
%
%ADD310ROTATEDRECTD310*%

G04:AMPARAMS|DCode=311|XSize=67.06mil|YSize=47.37mil|CornerRadius=0mil|HoleSize=0mil|Usage=FLASHONLY|Rotation=118.000|XOffset=0mil|YOffset=0mil|HoleType=Round|Shape=Rectangle|*
%AMROTATEDRECTD311*
4,1,4,0.03665,-0.01848,-0.00517,-0.04072,-0.03665,0.01848,0.00517,0.04072,0.03665,-0.01848,0.0*
%
%ADD311ROTATEDRECTD311*%

G04:AMPARAMS|DCode=312|XSize=67.06mil|YSize=47.37mil|CornerRadius=0mil|HoleSize=0mil|Usage=FLASHONLY|Rotation=213.000|XOffset=0mil|YOffset=0mil|HoleType=Round|Shape=Rectangle|*
%AMROTATEDRECTD312*
4,1,4,0.01522,0.03812,0.04102,-0.00160,-0.01522,-0.03812,-0.04102,0.00160,0.01522,0.03812,0.0*
%
%ADD312ROTATEDRECTD312*%

G04:AMPARAMS|DCode=313|XSize=67.06mil|YSize=47.37mil|CornerRadius=0mil|HoleSize=0mil|Usage=FLASHONLY|Rotation=257.000|XOffset=0mil|YOffset=0mil|HoleType=Round|Shape=Rectangle|*
%AMROTATEDRECTD313*
4,1,4,-0.01554,0.03800,0.03062,0.02734,0.01554,-0.03800,-0.03062,-0.02734,-0.01554,0.03800,0.0*
%
%ADD313ROTATEDRECTD313*%

G04:AMPARAMS|DCode=314|XSize=67.06mil|YSize=47.37mil|CornerRadius=0mil|HoleSize=0mil|Usage=FLASHONLY|Rotation=202.000|XOffset=0mil|YOffset=0mil|HoleType=Round|Shape=Rectangle|*
%AMROTATEDRECTD314*
4,1,4,0.02221,0.03452,0.03996,-0.00940,-0.02221,-0.03452,-0.03996,0.00940,0.02221,0.03452,0.0*
%
%ADD314ROTATEDRECTD314*%

G04:AMPARAMS|DCode=315|XSize=67.06mil|YSize=47.37mil|CornerRadius=0mil|HoleSize=0mil|Usage=FLASHONLY|Rotation=189.000|XOffset=0mil|YOffset=0mil|HoleType=Round|Shape=Rectangle|*
%AMROTATEDRECTD315*
4,1,4,0.02941,0.02864,0.03682,-0.01815,-0.02941,-0.02864,-0.03682,0.01815,0.02941,0.02864,0.0*
%
%ADD315ROTATEDRECTD315*%

G04:AMPARAMS|DCode=316|XSize=67.06mil|YSize=47.37mil|CornerRadius=0mil|HoleSize=0mil|Usage=FLASHONLY|Rotation=178.000|XOffset=0mil|YOffset=0mil|HoleType=Round|Shape=Rectangle|*
%AMROTATEDRECTD316*
4,1,4,0.03433,0.02250,0.03268,-0.02484,-0.03433,-0.02250,-0.03268,0.02484,0.03433,0.02250,0.0*
%
%ADD316ROTATEDRECTD316*%

G04:AMPARAMS|DCode=317|XSize=67.06mil|YSize=47.37mil|CornerRadius=0mil|HoleSize=0mil|Usage=FLASHONLY|Rotation=334.000|XOffset=0mil|YOffset=0mil|HoleType=Round|Shape=Rectangle|*
%AMROTATEDRECTD317*
4,1,4,-0.04052,-0.00659,-0.01975,0.03599,0.04052,0.00659,0.01975,-0.03599,-0.04052,-0.00659,0.0*
%
%ADD317ROTATEDRECTD317*%

G04:AMPARAMS|DCode=318|XSize=67.06mil|YSize=47.37mil|CornerRadius=0mil|HoleSize=0mil|Usage=FLASHONLY|Rotation=8.000|XOffset=0mil|YOffset=0mil|HoleType=Round|Shape=Rectangle|*
%AMROTATEDRECTD318*
4,1,4,-0.02991,-0.02812,-0.03650,0.01879,0.02991,0.02812,0.03650,-0.01879,-0.02991,-0.02812,0.0*
%
%ADD318ROTATEDRECTD318*%

G04:AMPARAMS|DCode=319|XSize=67.06mil|YSize=47.37mil|CornerRadius=0mil|HoleSize=0mil|Usage=FLASHONLY|Rotation=323.000|XOffset=0mil|YOffset=0mil|HoleType=Round|Shape=Rectangle|*
%AMROTATEDRECTD319*
4,1,4,-0.04103,0.00126,-0.01252,0.03909,0.04103,-0.00126,0.01252,-0.03909,-0.04103,0.00126,0.0*
%
%ADD319ROTATEDRECTD319*%

G04:AMPARAMS|DCode=320|XSize=67.06mil|YSize=47.37mil|CornerRadius=0mil|HoleSize=0mil|Usage=FLASHONLY|Rotation=280.000|XOffset=0mil|YOffset=0mil|HoleType=Round|Shape=Rectangle|*
%AMROTATEDRECTD320*
4,1,4,-0.02915,0.02891,0.01750,0.03713,0.02915,-0.02891,-0.01750,-0.03713,-0.02915,0.02891,0.0*
%
%ADD320ROTATEDRECTD320*%

G04:AMPARAMS|DCode=321|XSize=67.06mil|YSize=47.37mil|CornerRadius=0mil|HoleSize=0mil|Usage=FLASHONLY|Rotation=357.000|XOffset=0mil|YOffset=0mil|HoleType=Round|Shape=Rectangle|*
%AMROTATEDRECTD321*
4,1,4,-0.03472,-0.02190,-0.03224,0.02541,0.03472,0.02190,0.03224,-0.02541,-0.03472,-0.02190,0.0*
%
%ADD321ROTATEDRECTD321*%

G04:AMPARAMS|DCode=322|XSize=67.06mil|YSize=47.37mil|CornerRadius=0mil|HoleSize=0mil|Usage=FLASHONLY|Rotation=313.000|XOffset=0mil|YOffset=0mil|HoleType=Round|Shape=Rectangle|*
%AMROTATEDRECTD322*
4,1,4,-0.04019,0.00837,-0.00554,0.04067,0.04019,-0.00837,0.00554,-0.04067,-0.04019,0.00837,0.0*
%
%ADD322ROTATEDRECTD322*%

G04:AMPARAMS|DCode=323|XSize=67.06mil|YSize=47.37mil|CornerRadius=0mil|HoleSize=0mil|Usage=FLASHONLY|Rotation=108.000|XOffset=0mil|YOffset=0mil|HoleType=Round|Shape=Rectangle|*
%AMROTATEDRECTD323*
4,1,4,0.03289,-0.02457,-0.01217,-0.03921,-0.03289,0.02457,0.01217,0.03921,0.03289,-0.02457,0.0*
%
%ADD323ROTATEDRECTD323*%

G04:AMPARAMS|DCode=324|XSize=67.06mil|YSize=47.37mil|CornerRadius=0mil|HoleSize=0mil|Usage=FLASHONLY|Rotation=50.000|XOffset=0mil|YOffset=0mil|HoleType=Round|Shape=Rectangle|*
%AMROTATEDRECTD324*
4,1,4,-0.00341,-0.04091,-0.03970,-0.01046,0.00341,0.04091,0.03970,0.01046,-0.00341,-0.04091,0.0*
%
%ADD324ROTATEDRECTD324*%

G04:AMPARAMS|DCode=325|XSize=67.06mil|YSize=47.37mil|CornerRadius=0mil|HoleSize=0mil|Usage=FLASHONLY|Rotation=132.000|XOffset=0mil|YOffset=0mil|HoleType=Round|Shape=Rectangle|*
%AMROTATEDRECTD325*
4,1,4,0.04004,-0.00907,0.00483,-0.04076,-0.04004,0.00907,-0.00483,0.04076,0.04004,-0.00907,0.0*
%
%ADD325ROTATEDRECTD325*%

G04:AMPARAMS|DCode=326|XSize=67.06mil|YSize=47.37mil|CornerRadius=0mil|HoleSize=0mil|Usage=FLASHONLY|Rotation=119.000|XOffset=0mil|YOffset=0mil|HoleType=Round|Shape=Rectangle|*
%AMROTATEDRECTD326*
4,1,4,0.03697,-0.01784,-0.00446,-0.04081,-0.03697,0.01784,0.00446,0.04081,0.03697,-0.01784,0.0*
%
%ADD326ROTATEDRECTD326*%

G04:AMPARAMS|DCode=327|XSize=67.06mil|YSize=47.37mil|CornerRadius=0mil|HoleSize=0mil|Usage=FLASHONLY|Rotation=30.000|XOffset=0mil|YOffset=0mil|HoleType=Round|Shape=Rectangle|*
%AMROTATEDRECTD327*
4,1,4,-0.01719,-0.03728,-0.04088,0.00375,0.01719,0.03728,0.04088,-0.00375,-0.01719,-0.03728,0.0*
%
%ADD327ROTATEDRECTD327*%

G04:AMPARAMS|DCode=328|XSize=67.06mil|YSize=47.37mil|CornerRadius=0mil|HoleSize=0mil|Usage=FLASHONLY|Rotation=73.000|XOffset=0mil|YOffset=0mil|HoleType=Round|Shape=Rectangle|*
%AMROTATEDRECTD328*
4,1,4,0.01285,-0.03899,-0.03245,-0.02514,-0.01285,0.03899,0.03245,0.02514,0.01285,-0.03899,0.0*
%
%ADD328ROTATEDRECTD328*%

G04:AMPARAMS|DCode=329|XSize=67.06mil|YSize=47.37mil|CornerRadius=0mil|HoleSize=0mil|Usage=FLASHONLY|Rotation=176.000|XOffset=0mil|YOffset=0mil|HoleType=Round|Shape=Rectangle|*
%AMROTATEDRECTD329*
4,1,4,0.03510,0.02129,0.03179,-0.02597,-0.03510,-0.02129,-0.03179,0.02597,0.03510,0.02129,0.0*
%
%ADD329ROTATEDRECTD329*%

G04:AMPARAMS|DCode=330|XSize=67.06mil|YSize=47.37mil|CornerRadius=0mil|HoleSize=0mil|Usage=FLASHONLY|Rotation=322.000|XOffset=0mil|YOffset=0mil|HoleType=Round|Shape=Rectangle|*
%AMROTATEDRECTD330*
4,1,4,-0.04100,0.00198,-0.01184,0.03931,0.04100,-0.00198,0.01184,-0.03931,-0.04100,0.00198,0.0*
%
%ADD330ROTATEDRECTD330*%

G04:AMPARAMS|DCode=331|XSize=67.06mil|YSize=47.37mil|CornerRadius=0mil|HoleSize=0mil|Usage=FLASHONLY|Rotation=158.000|XOffset=0mil|YOffset=0mil|HoleType=Round|Shape=Rectangle|*
%AMROTATEDRECTD331*
4,1,4,0.03996,0.00940,0.02221,-0.03452,-0.03996,-0.00940,-0.02221,0.03452,0.03996,0.00940,0.0*
%
%ADD331ROTATEDRECTD331*%

G04:AMPARAMS|DCode=332|XSize=67.06mil|YSize=47.37mil|CornerRadius=0mil|HoleSize=0mil|Usage=FLASHONLY|Rotation=307.000|XOffset=0mil|YOffset=0mil|HoleType=Round|Shape=Rectangle|*
%AMROTATEDRECTD332*
4,1,4,-0.03909,0.01252,-0.00126,0.04103,0.03909,-0.01252,0.00126,-0.04103,-0.03909,0.01252,0.0*
%
%ADD332ROTATEDRECTD332*%

G04:AMPARAMS|DCode=333|XSize=67.06mil|YSize=47.37mil|CornerRadius=0mil|HoleSize=0mil|Usage=FLASHONLY|Rotation=140.000|XOffset=0mil|YOffset=0mil|HoleType=Round|Shape=Rectangle|*
%AMROTATEDRECTD333*
4,1,4,0.04091,-0.00341,0.01046,-0.03970,-0.04091,0.00341,-0.01046,0.03970,0.04091,-0.00341,0.0*
%
%ADD333ROTATEDRECTD333*%

G04:AMPARAMS|DCode=334|XSize=67.06mil|YSize=47.37mil|CornerRadius=0mil|HoleSize=0mil|Usage=FLASHONLY|Rotation=55.000|XOffset=0mil|YOffset=0mil|HoleType=Round|Shape=Rectangle|*
%AMROTATEDRECTD334*
4,1,4,0.00017,-0.04105,-0.03863,-0.01388,-0.00017,0.04105,0.03863,0.01388,0.00017,-0.04105,0.0*
%
%ADD334ROTATEDRECTD334*%

G04:AMPARAMS|DCode=335|XSize=67.06mil|YSize=47.37mil|CornerRadius=0mil|HoleSize=0mil|Usage=FLASHONLY|Rotation=43.000|XOffset=0mil|YOffset=0mil|HoleType=Round|Shape=Rectangle|*
%AMROTATEDRECTD335*
4,1,4,-0.00837,-0.04019,-0.04067,-0.00554,0.00837,0.04019,0.04067,0.00554,-0.00837,-0.04019,0.0*
%
%ADD335ROTATEDRECTD335*%

G04:AMPARAMS|DCode=336|XSize=67.06mil|YSize=47.37mil|CornerRadius=0mil|HoleSize=0mil|Usage=FLASHONLY|Rotation=25.000|XOffset=0mil|YOffset=0mil|HoleType=Round|Shape=Rectangle|*
%AMROTATEDRECTD336*
4,1,4,-0.02038,-0.03564,-0.04040,0.00730,0.02038,0.03564,0.04040,-0.00730,-0.02038,-0.03564,0.0*
%
%ADD336ROTATEDRECTD336*%

G04:AMPARAMS|DCode=337|XSize=67.06mil|YSize=47.37mil|CornerRadius=0mil|HoleSize=0mil|Usage=FLASHONLY|Rotation=12.000|XOffset=0mil|YOffset=0mil|HoleType=Round|Shape=Rectangle|*
%AMROTATEDRECTD337*
4,1,4,-0.02787,-0.03014,-0.03772,0.01620,0.02787,0.03014,0.03772,-0.01620,-0.02787,-0.03014,0.0*
%
%ADD337ROTATEDRECTD337*%

G04:AMPARAMS|DCode=338|XSize=67.06mil|YSize=47.37mil|CornerRadius=0mil|HoleSize=0mil|Usage=FLASHONLY|Rotation=355.000|XOffset=0mil|YOffset=0mil|HoleType=Round|Shape=Rectangle|*
%AMROTATEDRECTD338*
4,1,4,-0.03546,-0.02067,-0.03134,0.02652,0.03546,0.02067,0.03134,-0.02652,-0.03546,-0.02067,0.0*
%
%ADD338ROTATEDRECTD338*%

G04:AMPARAMS|DCode=339|XSize=67.06mil|YSize=47.37mil|CornerRadius=0mil|HoleSize=0mil|Usage=FLASHONLY|Rotation=15.000|XOffset=0mil|YOffset=0mil|HoleType=Round|Shape=Rectangle|*
%AMROTATEDRECTD339*
4,1,4,-0.02626,-0.03156,-0.03852,0.01420,0.02626,0.03156,0.03852,-0.01420,-0.02626,-0.03156,0.0*
%
%ADD339ROTATEDRECTD339*%

G04:AMPARAMS|DCode=340|XSize=29.72mil|YSize=22.72mil|CornerRadius=0mil|HoleSize=0mil|Usage=FLASHONLY|Rotation=312.000|XOffset=0mil|YOffset=0mil|HoleType=Round|Shape=Rectangle|*
%AMROTATEDRECTD340*
4,1,4,-0.01839,0.00344,-0.00150,0.01865,0.01839,-0.00344,0.00150,-0.01865,-0.01839,0.00344,0.0*
%
%ADD340ROTATEDRECTD340*%

G04:AMPARAMS|DCode=341|XSize=29.72mil|YSize=22.72mil|CornerRadius=0mil|HoleSize=0mil|Usage=FLASHONLY|Rotation=229.000|XOffset=0mil|YOffset=0mil|HoleType=Round|Shape=Rectangle|*
%AMROTATEDRECTD341*
4,1,4,0.00118,0.01867,0.01833,0.00376,-0.00118,-0.01867,-0.01833,-0.00376,0.00118,0.01867,0.0*
%
%ADD341ROTATEDRECTD341*%

G04:AMPARAMS|DCode=342|XSize=29.72mil|YSize=22.72mil|CornerRadius=0mil|HoleSize=0mil|Usage=FLASHONLY|Rotation=6.000|XOffset=0mil|YOffset=0mil|HoleType=Round|Shape=Rectangle|*
%AMROTATEDRECTD342*
4,1,4,-0.01359,-0.01285,-0.01597,0.00975,0.01359,0.01285,0.01597,-0.00975,-0.01359,-0.01285,0.0*
%
%ADD342ROTATEDRECTD342*%

G04:AMPARAMS|DCode=343|XSize=29.72mil|YSize=22.72mil|CornerRadius=0mil|HoleSize=0mil|Usage=FLASHONLY|Rotation=135.000|XOffset=0mil|YOffset=0mil|HoleType=Round|Shape=Rectangle|*
%AMROTATEDRECTD343*
4,1,4,0.01854,-0.00248,0.00248,-0.01854,-0.01854,0.00248,-0.00248,0.01854,0.01854,-0.00248,0.0*
%
%ADD343ROTATEDRECTD343*%

G04:AMPARAMS|DCode=344|XSize=29.72mil|YSize=22.72mil|CornerRadius=0mil|HoleSize=0mil|Usage=FLASHONLY|Rotation=221.000|XOffset=0mil|YOffset=0mil|HoleType=Round|Shape=Rectangle|*
%AMROTATEDRECTD344*
4,1,4,0.00376,0.01833,0.01867,0.00118,-0.00376,-0.01833,-0.01867,-0.00118,0.00376,0.01833,0.0*
%
%ADD344ROTATEDRECTD344*%

%ADD345R,0.02972X0.02272*%
G04:AMPARAMS|DCode=346|XSize=29.72mil|YSize=22.72mil|CornerRadius=0mil|HoleSize=0mil|Usage=FLASHONLY|Rotation=296.000|XOffset=0mil|YOffset=0mil|HoleType=Round|Shape=Rectangle|*
%AMROTATEDRECTD346*
4,1,4,-0.01673,0.00838,0.00370,0.01834,0.01673,-0.00838,-0.00370,-0.01834,-0.01673,0.00838,0.0*
%
%ADD346ROTATEDRECTD346*%

G04:AMPARAMS|DCode=347|XSize=29.72mil|YSize=22.72mil|CornerRadius=0mil|HoleSize=0mil|Usage=FLASHONLY|Rotation=126.000|XOffset=0mil|YOffset=0mil|HoleType=Round|Shape=Rectangle|*
%AMROTATEDRECTD347*
4,1,4,0.01793,-0.00535,-0.00046,-0.01870,-0.01793,0.00535,0.00046,0.01870,0.01793,-0.00535,0.0*
%
%ADD347ROTATEDRECTD347*%

G04:AMPARAMS|DCode=348|XSize=29.72mil|YSize=22.72mil|CornerRadius=0mil|HoleSize=0mil|Usage=FLASHONLY|Rotation=213.000|XOffset=0mil|YOffset=0mil|HoleType=Round|Shape=Rectangle|*
%AMROTATEDRECTD348*
4,1,4,0.00628,0.01762,0.01865,-0.00144,-0.00628,-0.01762,-0.01865,0.00144,0.00628,0.01762,0.0*
%
%ADD348ROTATEDRECTD348*%

G04:AMPARAMS|DCode=349|XSize=29.72mil|YSize=22.72mil|CornerRadius=0mil|HoleSize=0mil|Usage=FLASHONLY|Rotation=352.000|XOffset=0mil|YOffset=0mil|HoleType=Round|Shape=Rectangle|*
%AMROTATEDRECTD349*
4,1,4,-0.01630,-0.00918,-0.01314,0.01332,0.01630,0.00918,0.01314,-0.01332,-0.01630,-0.00918,0.0*
%
%ADD349ROTATEDRECTD349*%

G04:AMPARAMS|DCode=350|XSize=29.72mil|YSize=22.72mil|CornerRadius=0mil|HoleSize=0mil|Usage=FLASHONLY|Rotation=288.000|XOffset=0mil|YOffset=0mil|HoleType=Round|Shape=Rectangle|*
%AMROTATEDRECTD350*
4,1,4,-0.01540,0.01062,0.00621,0.01765,0.01540,-0.01062,-0.00621,-0.01765,-0.01540,0.01062,0.0*
%
%ADD350ROTATEDRECTD350*%

G04:AMPARAMS|DCode=351|XSize=29.72mil|YSize=22.72mil|CornerRadius=0mil|HoleSize=0mil|Usage=FLASHONLY|Rotation=117.000|XOffset=0mil|YOffset=0mil|HoleType=Round|Shape=Rectangle|*
%AMROTATEDRECTD351*
4,1,4,0.01687,-0.00808,-0.00338,-0.01840,-0.01687,0.00808,0.00338,0.01840,0.01687,-0.00808,0.0*
%
%ADD351ROTATEDRECTD351*%

G04:AMPARAMS|DCode=352|XSize=29.72mil|YSize=22.72mil|CornerRadius=0mil|HoleSize=0mil|Usage=FLASHONLY|Rotation=207.000|XOffset=0mil|YOffset=0mil|HoleType=Round|Shape=Rectangle|*
%AMROTATEDRECTD352*
4,1,4,0.00808,0.01687,0.01840,-0.00338,-0.00808,-0.01687,-0.01840,0.00338,0.00808,0.01687,0.0*
%
%ADD352ROTATEDRECTD352*%

G04:AMPARAMS|DCode=353|XSize=29.72mil|YSize=22.72mil|CornerRadius=0mil|HoleSize=0mil|Usage=FLASHONLY|Rotation=280.000|XOffset=0mil|YOffset=0mil|HoleType=Round|Shape=Rectangle|*
%AMROTATEDRECTD353*
4,1,4,-0.01377,0.01266,0.00861,0.01661,0.01377,-0.01266,-0.00861,-0.01661,-0.01377,0.01266,0.0*
%
%ADD353ROTATEDRECTD353*%

G04:AMPARAMS|DCode=354|XSize=29.72mil|YSize=22.72mil|CornerRadius=0mil|HoleSize=0mil|Usage=FLASHONLY|Rotation=200.000|XOffset=0mil|YOffset=0mil|HoleType=Round|Shape=Rectangle|*
%AMROTATEDRECTD354*
4,1,4,0.01008,0.01576,0.01785,-0.00559,-0.01008,-0.01576,-0.01785,0.00559,0.01008,0.01576,0.0*
%
%ADD354ROTATEDRECTD354*%

G04:AMPARAMS|DCode=355|XSize=29.72mil|YSize=22.72mil|CornerRadius=0mil|HoleSize=0mil|Usage=FLASHONLY|Rotation=337.000|XOffset=0mil|YOffset=0mil|HoleType=Round|Shape=Rectangle|*
%AMROTATEDRECTD355*
4,1,4,-0.01812,-0.00465,-0.00924,0.01627,0.01812,0.00465,0.00924,-0.01627,-0.01812,-0.00465,0.0*
%
%ADD355ROTATEDRECTD355*%

G04:AMPARAMS|DCode=356|XSize=29.72mil|YSize=22.72mil|CornerRadius=0mil|HoleSize=0mil|Usage=FLASHONLY|Rotation=193.000|XOffset=0mil|YOffset=0mil|HoleType=Round|Shape=Rectangle|*
%AMROTATEDRECTD356*
4,1,4,0.01193,0.01441,0.01704,-0.00773,-0.01193,-0.01441,-0.01704,0.00773,0.01193,0.01441,0.0*
%
%ADD356ROTATEDRECTD356*%

G04:AMPARAMS|DCode=357|XSize=29.72mil|YSize=22.72mil|CornerRadius=0mil|HoleSize=0mil|Usage=FLASHONLY|Rotation=330.000|XOffset=0mil|YOffset=0mil|HoleType=Round|Shape=Rectangle|*
%AMROTATEDRECTD357*
4,1,4,-0.01855,-0.00241,-0.00719,0.01727,0.01855,0.00241,0.00719,-0.01727,-0.01855,-0.00241,0.0*
%
%ADD357ROTATEDRECTD357*%

G04:AMPARAMS|DCode=358|XSize=29.72mil|YSize=22.72mil|CornerRadius=0mil|HoleSize=0mil|Usage=FLASHONLY|Rotation=263.000|XOffset=0mil|YOffset=0mil|HoleType=Round|Shape=Rectangle|*
%AMROTATEDRECTD358*
4,1,4,-0.00947,0.01614,0.01309,0.01337,0.00947,-0.01614,-0.01309,-0.01337,-0.00947,0.01614,0.0*
%
%ADD358ROTATEDRECTD358*%

G04:AMPARAMS|DCode=359|XSize=29.72mil|YSize=22.72mil|CornerRadius=0mil|HoleSize=0mil|Usage=FLASHONLY|Rotation=187.000|XOffset=0mil|YOffset=0mil|HoleType=Round|Shape=Rectangle|*
%AMROTATEDRECTD359*
4,1,4,0.01337,0.01309,0.01614,-0.00947,-0.01337,-0.01309,-0.01614,0.00947,0.01337,0.01309,0.0*
%
%ADD359ROTATEDRECTD359*%

G04:AMPARAMS|DCode=360|XSize=29.72mil|YSize=22.72mil|CornerRadius=0mil|HoleSize=0mil|Usage=FLASHONLY|Rotation=254.000|XOffset=0mil|YOffset=0mil|HoleType=Round|Shape=Rectangle|*
%AMROTATEDRECTD360*
4,1,4,-0.00683,0.01742,0.01502,0.01116,0.00683,-0.01742,-0.01502,-0.01116,-0.00683,0.01742,0.0*
%
%ADD360ROTATEDRECTD360*%

G04:AMPARAMS|DCode=361|XSize=29.72mil|YSize=22.72mil|CornerRadius=0mil|HoleSize=0mil|Usage=FLASHONLY|Rotation=80.000|XOffset=0mil|YOffset=0mil|HoleType=Round|Shape=Rectangle|*
%AMROTATEDRECTD361*
4,1,4,0.00861,-0.01661,-0.01377,-0.01266,-0.00861,0.01661,0.01377,0.01266,0.00861,-0.01661,0.0*
%
%ADD361ROTATEDRECTD361*%

G04:AMPARAMS|DCode=362|XSize=29.72mil|YSize=22.72mil|CornerRadius=0mil|HoleSize=0mil|Usage=FLASHONLY|Rotation=318.000|XOffset=0mil|YOffset=0mil|HoleType=Round|Shape=Rectangle|*
%AMROTATEDRECTD362*
4,1,4,-0.01865,0.00150,-0.00344,0.01839,0.01865,-0.00150,0.00344,-0.01839,-0.01865,0.00150,0.0*
%
%ADD362ROTATEDRECTD362*%

G04:AMPARAMS|DCode=363|XSize=29.72mil|YSize=22.72mil|CornerRadius=0mil|HoleSize=0mil|Usage=FLASHONLY|Rotation=245.000|XOffset=0mil|YOffset=0mil|HoleType=Round|Shape=Rectangle|*
%AMROTATEDRECTD363*
4,1,4,-0.00402,0.01827,0.01658,0.00867,0.00402,-0.01827,-0.01658,-0.00867,-0.00402,0.01827,0.0*
%
%ADD363ROTATEDRECTD363*%

G04:AMPARAMS|DCode=364|XSize=29.72mil|YSize=22.72mil|CornerRadius=0mil|HoleSize=0mil|Usage=FLASHONLY|Rotation=173.000|XOffset=0mil|YOffset=0mil|HoleType=Round|Shape=Rectangle|*
%AMROTATEDRECTD364*
4,1,4,0.01614,0.00947,0.01337,-0.01309,-0.01614,-0.00947,-0.01337,0.01309,0.01614,0.00947,0.0*
%
%ADD364ROTATEDRECTD364*%

G04:AMPARAMS|DCode=365|XSize=29.72mil|YSize=22.72mil|CornerRadius=0mil|HoleSize=0mil|Usage=FLASHONLY|Rotation=310.000|XOffset=0mil|YOffset=0mil|HoleType=Round|Shape=Rectangle|*
%AMROTATEDRECTD365*
4,1,4,-0.01826,0.00408,-0.00085,0.01869,0.01826,-0.00408,0.00085,-0.01869,-0.01826,0.00408,0.0*
%
%ADD365ROTATEDRECTD365*%

G04:AMPARAMS|DCode=366|XSize=29.72mil|YSize=22.72mil|CornerRadius=0mil|HoleSize=0mil|Usage=FLASHONLY|Rotation=237.000|XOffset=0mil|YOffset=0mil|HoleType=Round|Shape=Rectangle|*
%AMROTATEDRECTD366*
4,1,4,-0.00144,0.01865,0.01762,0.00628,0.00144,-0.01865,-0.01762,-0.00628,-0.00144,0.01865,0.0*
%
%ADD366ROTATEDRECTD366*%

G04:AMPARAMS|DCode=367|XSize=29.72mil|YSize=22.72mil|CornerRadius=0mil|HoleSize=0mil|Usage=FLASHONLY|Rotation=82.000|XOffset=0mil|YOffset=0mil|HoleType=Round|Shape=Rectangle|*
%AMROTATEDRECTD367*
4,1,4,0.00918,-0.01630,-0.01332,-0.01314,-0.00918,0.01630,0.01332,0.01314,0.00918,-0.01630,0.0*
%
%ADD367ROTATEDRECTD367*%

G04:AMPARAMS|DCode=368|XSize=29.72mil|YSize=22.72mil|CornerRadius=0mil|HoleSize=0mil|Usage=FLASHONLY|Rotation=76.000|XOffset=0mil|YOffset=0mil|HoleType=Round|Shape=Rectangle|*
%AMROTATEDRECTD368*
4,1,4,0.00743,-0.01717,-0.01462,-0.01167,-0.00743,0.01717,0.01462,0.01167,0.00743,-0.01717,0.0*
%
%ADD368ROTATEDRECTD368*%

G04:AMPARAMS|DCode=369|XSize=29.72mil|YSize=22.72mil|CornerRadius=0mil|HoleSize=0mil|Usage=FLASHONLY|Rotation=158.000|XOffset=0mil|YOffset=0mil|HoleType=Round|Shape=Rectangle|*
%AMROTATEDRECTD369*
4,1,4,0.01804,0.00497,0.00952,-0.01610,-0.01804,-0.00497,-0.00952,0.01610,0.01804,0.00497,0.0*
%
%ADD369ROTATEDRECTD369*%

G04:AMPARAMS|DCode=370|XSize=29.72mil|YSize=22.72mil|CornerRadius=0mil|HoleSize=0mil|Usage=FLASHONLY|Rotation=298.000|XOffset=0mil|YOffset=0mil|HoleType=Round|Shape=Rectangle|*
%AMROTATEDRECTD370*
4,1,4,-0.01701,0.00779,0.00306,0.01846,0.01701,-0.00779,-0.00306,-0.01846,-0.01701,0.00779,0.0*
%
%ADD370ROTATEDRECTD370*%

G04:AMPARAMS|DCode=371|XSize=29.72mil|YSize=22.72mil|CornerRadius=0mil|HoleSize=0mil|Usage=FLASHONLY|Rotation=220.000|XOffset=0mil|YOffset=0mil|HoleType=Round|Shape=Rectangle|*
%AMROTATEDRECTD371*
4,1,4,0.00408,0.01826,0.01869,0.00085,-0.00408,-0.01826,-0.01869,-0.00085,0.00408,0.01826,0.0*
%
%ADD371ROTATEDRECTD371*%

G04:AMPARAMS|DCode=372|XSize=29.72mil|YSize=22.72mil|CornerRadius=0mil|HoleSize=0mil|Usage=FLASHONLY|Rotation=69.000|XOffset=0mil|YOffset=0mil|HoleType=Round|Shape=Rectangle|*
%AMROTATEDRECTD372*
4,1,4,0.00528,-0.01795,-0.01593,-0.00980,-0.00528,0.01795,0.01593,0.00980,0.00528,-0.01795,0.0*
%
%ADD372ROTATEDRECTD372*%

G04:AMPARAMS|DCode=373|XSize=29.72mil|YSize=22.72mil|CornerRadius=0mil|HoleSize=0mil|Usage=FLASHONLY|Rotation=151.000|XOffset=0mil|YOffset=0mil|HoleType=Round|Shape=Rectangle|*
%AMROTATEDRECTD373*
4,1,4,0.01851,0.00273,0.00749,-0.01714,-0.01851,-0.00273,-0.00749,0.01714,0.01851,0.00273,0.0*
%
%ADD373ROTATEDRECTD373*%

G04:AMPARAMS|DCode=374|XSize=29.72mil|YSize=22.72mil|CornerRadius=0mil|HoleSize=0mil|Usage=FLASHONLY|Rotation=290.000|XOffset=0mil|YOffset=0mil|HoleType=Round|Shape=Rectangle|*
%AMROTATEDRECTD374*
4,1,4,-0.01576,0.01008,0.00559,0.01785,0.01576,-0.01008,-0.00559,-0.01785,-0.01576,0.01008,0.0*
%
%ADD374ROTATEDRECTD374*%

G04:AMPARAMS|DCode=375|XSize=29.72mil|YSize=22.72mil|CornerRadius=0mil|HoleSize=0mil|Usage=FLASHONLY|Rotation=212.000|XOffset=0mil|YOffset=0mil|HoleType=Round|Shape=Rectangle|*
%AMROTATEDRECTD375*
4,1,4,0.00658,0.01751,0.01862,-0.00176,-0.00658,-0.01751,-0.01862,0.00176,0.00658,0.01751,0.0*
%
%ADD375ROTATEDRECTD375*%

G04:AMPARAMS|DCode=376|XSize=29.72mil|YSize=22.72mil|CornerRadius=0mil|HoleSize=0mil|Usage=FLASHONLY|Rotation=63.000|XOffset=0mil|YOffset=0mil|HoleType=Round|Shape=Rectangle|*
%AMROTATEDRECTD376*
4,1,4,0.00338,-0.01840,-0.01687,-0.00808,-0.00338,0.01840,0.01687,0.00808,0.00338,-0.01840,0.0*
%
%ADD376ROTATEDRECTD376*%

G04:AMPARAMS|DCode=377|XSize=29.72mil|YSize=22.72mil|CornerRadius=0mil|HoleSize=0mil|Usage=FLASHONLY|Rotation=144.000|XOffset=0mil|YOffset=0mil|HoleType=Round|Shape=Rectangle|*
%AMROTATEDRECTD377*
4,1,4,0.01870,0.00046,0.00535,-0.01793,-0.01870,-0.00046,-0.00535,0.01793,0.01870,0.00046,0.0*
%
%ADD377ROTATEDRECTD377*%

G04:AMPARAMS|DCode=378|XSize=29.72mil|YSize=22.72mil|CornerRadius=0mil|HoleSize=0mil|Usage=FLASHONLY|Rotation=283.000|XOffset=0mil|YOffset=0mil|HoleType=Round|Shape=Rectangle|*
%AMROTATEDRECTD378*
4,1,4,-0.01441,0.01193,0.00773,0.01704,0.01441,-0.01193,-0.00773,-0.01704,-0.01441,0.01193,0.0*
%
%ADD378ROTATEDRECTD378*%

G04:AMPARAMS|DCode=379|XSize=29.72mil|YSize=22.72mil|CornerRadius=0mil|HoleSize=0mil|Usage=FLASHONLY|Rotation=204.000|XOffset=0mil|YOffset=0mil|HoleType=Round|Shape=Rectangle|*
%AMROTATEDRECTD379*
4,1,4,0.00896,0.01643,0.01820,-0.00434,-0.00896,-0.01643,-0.01820,0.00434,0.00896,0.01643,0.0*
%
%ADD379ROTATEDRECTD379*%

G04:AMPARAMS|DCode=380|XSize=29.72mil|YSize=22.72mil|CornerRadius=0mil|HoleSize=0mil|Usage=FLASHONLY|Rotation=56.000|XOffset=0mil|YOffset=0mil|HoleType=Round|Shape=Rectangle|*
%AMROTATEDRECTD380*
4,1,4,0.00111,-0.01868,-0.01773,-0.00597,-0.00111,0.01868,0.01773,0.00597,0.00111,-0.01868,0.0*
%
%ADD380ROTATEDRECTD380*%

G04:AMPARAMS|DCode=381|XSize=29.72mil|YSize=22.72mil|CornerRadius=0mil|HoleSize=0mil|Usage=FLASHONLY|Rotation=48.000|XOffset=0mil|YOffset=0mil|HoleType=Round|Shape=Rectangle|*
%AMROTATEDRECTD381*
4,1,4,-0.00150,-0.01865,-0.01839,-0.00344,0.00150,0.01865,0.01839,0.00344,-0.00150,-0.01865,0.0*
%
%ADD381ROTATEDRECTD381*%

G04:AMPARAMS|DCode=382|XSize=29.72mil|YSize=22.72mil|CornerRadius=0mil|HoleSize=0mil|Usage=FLASHONLY|Rotation=131.000|XOffset=0mil|YOffset=0mil|HoleType=Round|Shape=Rectangle|*
%AMROTATEDRECTD382*
4,1,4,0.01833,-0.00376,0.00118,-0.01867,-0.01833,0.00376,-0.00118,0.01867,0.01833,-0.00376,0.0*
%
%ADD382ROTATEDRECTD382*%

G04:AMPARAMS|DCode=383|XSize=29.72mil|YSize=22.72mil|CornerRadius=0mil|HoleSize=0mil|Usage=FLASHONLY|Rotation=177.000|XOffset=0mil|YOffset=0mil|HoleType=Round|Shape=Rectangle|*
%AMROTATEDRECTD383*
4,1,4,0.01544,0.01057,0.01425,-0.01212,-0.01544,-0.01057,-0.01425,0.01212,0.01544,0.01057,0.0*
%
%ADD383ROTATEDRECTD383*%

G04:AMPARAMS|DCode=384|XSize=29.72mil|YSize=22.72mil|CornerRadius=0mil|HoleSize=0mil|Usage=FLASHONLY|Rotation=35.000|XOffset=0mil|YOffset=0mil|HoleType=Round|Shape=Rectangle|*
%AMROTATEDRECTD384*
4,1,4,-0.00566,-0.01783,-0.01869,0.00078,0.00566,0.01783,0.01869,-0.00078,-0.00566,-0.01783,0.0*
%
%ADD384ROTATEDRECTD384*%

G04:AMPARAMS|DCode=385|XSize=29.72mil|YSize=22.72mil|CornerRadius=0mil|HoleSize=0mil|Usage=FLASHONLY|Rotation=167.000|XOffset=0mil|YOffset=0mil|HoleType=Round|Shape=Rectangle|*
%AMROTATEDRECTD385*
4,1,4,0.01704,0.00773,0.01193,-0.01441,-0.01704,-0.00773,-0.01193,0.01441,0.01704,0.00773,0.0*
%
%ADD385ROTATEDRECTD385*%

G04:AMPARAMS|DCode=386|XSize=29.72mil|YSize=22.72mil|CornerRadius=0mil|HoleSize=0mil|Usage=FLASHONLY|Rotation=111.000|XOffset=0mil|YOffset=0mil|HoleType=Round|Shape=Rectangle|*
%AMROTATEDRECTD386*
4,1,4,0.01593,-0.00980,-0.00528,-0.01795,-0.01593,0.00980,0.00528,0.01795,0.01593,-0.00980,0.0*
%
%ADD386ROTATEDRECTD386*%

G04:AMPARAMS|DCode=387|XSize=29.72mil|YSize=22.72mil|CornerRadius=0mil|HoleSize=0mil|Usage=FLASHONLY|Rotation=247.000|XOffset=0mil|YOffset=0mil|HoleType=Round|Shape=Rectangle|*
%AMROTATEDRECTD387*
4,1,4,-0.00465,0.01812,0.01627,0.00924,0.00465,-0.01812,-0.01627,-0.00924,-0.00465,0.01812,0.0*
%
%ADD387ROTATEDRECTD387*%

G04:AMPARAMS|DCode=388|XSize=29.72mil|YSize=22.72mil|CornerRadius=0mil|HoleSize=0mil|Usage=FLASHONLY|Rotation=160.000|XOffset=0mil|YOffset=0mil|HoleType=Round|Shape=Rectangle|*
%AMROTATEDRECTD388*
4,1,4,0.01785,0.00559,0.01008,-0.01576,-0.01785,-0.00559,-0.01008,0.01576,0.01785,0.00559,0.0*
%
%ADD388ROTATEDRECTD388*%

G04:AMPARAMS|DCode=389|XSize=29.72mil|YSize=22.72mil|CornerRadius=0mil|HoleSize=0mil|Usage=FLASHONLY|Rotation=104.000|XOffset=0mil|YOffset=0mil|HoleType=Round|Shape=Rectangle|*
%AMROTATEDRECTD389*
4,1,4,0.01462,-0.01167,-0.00743,-0.01717,-0.01462,0.01167,0.00743,0.01717,0.01462,-0.01167,0.0*
%
%ADD389ROTATEDRECTD389*%

G04:AMPARAMS|DCode=390|XSize=29.72mil|YSize=22.72mil|CornerRadius=0mil|HoleSize=0mil|Usage=FLASHONLY|Rotation=241.000|XOffset=0mil|YOffset=0mil|HoleType=Round|Shape=Rectangle|*
%AMROTATEDRECTD390*
4,1,4,-0.00273,0.01851,0.01714,0.00749,0.00273,-0.01851,-0.01714,-0.00749,-0.00273,0.01851,0.0*
%
%ADD390ROTATEDRECTD390*%

G04:AMPARAMS|DCode=391|XSize=29.72mil|YSize=22.72mil|CornerRadius=0mil|HoleSize=0mil|Usage=FLASHONLY|Rotation=14.000|XOffset=0mil|YOffset=0mil|HoleType=Round|Shape=Rectangle|*
%AMROTATEDRECTD391*
4,1,4,-0.01167,-0.01462,-0.01717,0.00743,0.01167,0.01462,0.01717,-0.00743,-0.01167,-0.01462,0.0*
%
%ADD391ROTATEDRECTD391*%

G04:AMPARAMS|DCode=392|XSize=29.72mil|YSize=22.72mil|CornerRadius=0mil|HoleSize=0mil|Usage=FLASHONLY|Rotation=96.000|XOffset=0mil|YOffset=0mil|HoleType=Round|Shape=Rectangle|*
%AMROTATEDRECTD392*
4,1,4,0.01285,-0.01359,-0.00975,-0.01597,-0.01285,0.01359,0.00975,0.01597,0.01285,-0.01359,0.0*
%
%ADD392ROTATEDRECTD392*%

G04:AMPARAMS|DCode=393|XSize=29.72mil|YSize=22.72mil|CornerRadius=0mil|HoleSize=0mil|Usage=FLASHONLY|Rotation=235.000|XOffset=0mil|YOffset=0mil|HoleType=Round|Shape=Rectangle|*
%AMROTATEDRECTD393*
4,1,4,-0.00078,0.01869,0.01783,0.00566,0.00078,-0.01869,-0.01783,-0.00566,-0.00078,0.01869,0.0*
%
%ADD393ROTATEDRECTD393*%

G04:AMPARAMS|DCode=394|XSize=29.72mil|YSize=22.72mil|CornerRadius=0mil|HoleSize=0mil|Usage=FLASHONLY|Rotation=285.000|XOffset=0mil|YOffset=0mil|HoleType=Round|Shape=Rectangle|*
%AMROTATEDRECTD394*
4,1,4,-0.01482,0.01141,0.00713,0.01730,0.01482,-0.01141,-0.00713,-0.01730,-0.01482,0.01141,0.0*
%
%ADD394ROTATEDRECTD394*%

G04:AMPARAMS|DCode=395|XSize=29.72mil|YSize=22.72mil|CornerRadius=0mil|HoleSize=0mil|Usage=FLASHONLY|Rotation=282.000|XOffset=0mil|YOffset=0mil|HoleType=Round|Shape=Rectangle|*
%AMROTATEDRECTD395*
4,1,4,-0.01420,0.01218,0.00802,0.01690,0.01420,-0.01218,-0.00802,-0.01690,-0.01420,0.01218,0.0*
%
%ADD395ROTATEDRECTD395*%

G04:AMPARAMS|DCode=396|XSize=29.72mil|YSize=22.72mil|CornerRadius=0mil|HoleSize=0mil|Usage=FLASHONLY|Rotation=355.000|XOffset=0mil|YOffset=0mil|HoleType=Round|Shape=Rectangle|*
%AMROTATEDRECTD396*
4,1,4,-0.01580,-0.01002,-0.01382,0.01261,0.01580,0.01002,0.01382,-0.01261,-0.01580,-0.01002,0.0*
%
%ADD396ROTATEDRECTD396*%

G04:AMPARAMS|DCode=397|XSize=29.72mil|YSize=22.72mil|CornerRadius=0mil|HoleSize=0mil|Usage=FLASHONLY|Rotation=265.000|XOffset=0mil|YOffset=0mil|HoleType=Round|Shape=Rectangle|*
%AMROTATEDRECTD397*
4,1,4,-0.01002,0.01580,0.01261,0.01382,0.01002,-0.01580,-0.01261,-0.01382,-0.01002,0.01580,0.0*
%
%ADD397ROTATEDRECTD397*%

G04:AMPARAMS|DCode=398|XSize=29.72mil|YSize=22.72mil|CornerRadius=0mil|HoleSize=0mil|Usage=FLASHONLY|Rotation=123.000|XOffset=0mil|YOffset=0mil|HoleType=Round|Shape=Rectangle|*
%AMROTATEDRECTD398*
4,1,4,0.01762,-0.00628,-0.00144,-0.01865,-0.01762,0.00628,0.00144,0.01865,0.01762,-0.00628,0.0*
%
%ADD398ROTATEDRECTD398*%

G04:AMPARAMS|DCode=399|XSize=29.72mil|YSize=22.72mil|CornerRadius=0mil|HoleSize=0mil|Usage=FLASHONLY|Rotation=343.000|XOffset=0mil|YOffset=0mil|HoleType=Round|Shape=Rectangle|*
%AMROTATEDRECTD399*
4,1,4,-0.01753,-0.00652,-0.01089,0.01521,0.01753,0.00652,0.01089,-0.01521,-0.01753,-0.00652,0.0*
%
%ADD399ROTATEDRECTD399*%

G04:AMPARAMS|DCode=400|XSize=29.72mil|YSize=22.72mil|CornerRadius=0mil|HoleSize=0mil|Usage=FLASHONLY|Rotation=250.000|XOffset=0mil|YOffset=0mil|HoleType=Round|Shape=Rectangle|*
%AMROTATEDRECTD400*
4,1,4,-0.00559,0.01785,0.01576,0.01008,0.00559,-0.01785,-0.01576,-0.01008,-0.00559,0.01785,0.0*
%
%ADD400ROTATEDRECTD400*%

G04:AMPARAMS|DCode=401|XSize=29.72mil|YSize=22.72mil|CornerRadius=0mil|HoleSize=0mil|Usage=FLASHONLY|Rotation=232.000|XOffset=0mil|YOffset=0mil|HoleType=Round|Shape=Rectangle|*
%AMROTATEDRECTD401*
4,1,4,0.00020,0.01871,0.01810,0.00472,-0.00020,-0.01871,-0.01810,-0.00472,0.00020,0.01871,0.0*
%
%ADD401ROTATEDRECTD401*%

G04:AMPARAMS|DCode=402|XSize=29.72mil|YSize=22.72mil|CornerRadius=0mil|HoleSize=0mil|Usage=FLASHONLY|Rotation=99.000|XOffset=0mil|YOffset=0mil|HoleType=Round|Shape=Rectangle|*
%AMROTATEDRECTD402*
4,1,4,0.01355,-0.01290,-0.00890,-0.01646,-0.01355,0.01290,0.00890,0.01646,0.01355,-0.01290,0.0*
%
%ADD402ROTATEDRECTD402*%

G04:AMPARAMS|DCode=403|XSize=29.72mil|YSize=22.72mil|CornerRadius=0mil|HoleSize=0mil|Usage=FLASHONLY|Rotation=320.000|XOffset=0mil|YOffset=0mil|HoleType=Round|Shape=Rectangle|*
%AMROTATEDRECTD403*
4,1,4,-0.01869,0.00085,-0.00408,0.01826,0.01869,-0.00085,0.00408,-0.01826,-0.01869,0.00085,0.0*
%
%ADD403ROTATEDRECTD403*%

G04:AMPARAMS|DCode=404|XSize=29.72mil|YSize=22.72mil|CornerRadius=0mil|HoleSize=0mil|Usage=FLASHONLY|Rotation=50.000|XOffset=0mil|YOffset=0mil|HoleType=Round|Shape=Rectangle|*
%AMROTATEDRECTD404*
4,1,4,-0.00085,-0.01869,-0.01826,-0.00408,0.00085,0.01869,0.01826,0.00408,-0.00085,-0.01869,0.0*
%
%ADD404ROTATEDRECTD404*%

G04:AMPARAMS|DCode=405|XSize=29.72mil|YSize=22.72mil|CornerRadius=0mil|HoleSize=0mil|Usage=FLASHONLY|Rotation=217.000|XOffset=0mil|YOffset=0mil|HoleType=Round|Shape=Rectangle|*
%AMROTATEDRECTD405*
4,1,4,0.00503,0.01802,0.01871,-0.00013,-0.00503,-0.01802,-0.01871,0.00013,0.00503,0.01802,0.0*
%
%ADD405ROTATEDRECTD405*%

G04:AMPARAMS|DCode=406|XSize=29.72mil|YSize=22.72mil|CornerRadius=0mil|HoleSize=0mil|Usage=FLASHONLY|Rotation=201.000|XOffset=0mil|YOffset=0mil|HoleType=Round|Shape=Rectangle|*
%AMROTATEDRECTD406*
4,1,4,0.00980,0.01593,0.01795,-0.00528,-0.00980,-0.01593,-0.01795,0.00528,0.00980,0.01593,0.0*
%
%ADD406ROTATEDRECTD406*%

G04:AMPARAMS|DCode=407|XSize=29.72mil|YSize=22.72mil|CornerRadius=0mil|HoleSize=0mil|Usage=FLASHONLY|Rotation=300.000|XOffset=0mil|YOffset=0mil|HoleType=Round|Shape=Rectangle|*
%AMROTATEDRECTD407*
4,1,4,-0.01727,0.00719,0.00241,0.01855,0.01727,-0.00719,-0.00241,-0.01855,-0.01727,0.00719,0.0*
%
%ADD407ROTATEDRECTD407*%

G04:AMPARAMS|DCode=408|XSize=29.72mil|YSize=22.72mil|CornerRadius=0mil|HoleSize=0mil|Usage=FLASHONLY|Rotation=183.000|XOffset=0mil|YOffset=0mil|HoleType=Round|Shape=Rectangle|*
%AMROTATEDRECTD408*
4,1,4,0.01425,0.01212,0.01544,-0.01057,-0.01425,-0.01212,-0.01544,0.01057,0.01425,0.01212,0.0*
%
%ADD408ROTATEDRECTD408*%

G04:AMPARAMS|DCode=409|XSize=29.72mil|YSize=22.72mil|CornerRadius=0mil|HoleSize=0mil|Usage=FLASHONLY|Rotation=62.000|XOffset=0mil|YOffset=0mil|HoleType=Round|Shape=Rectangle|*
%AMROTATEDRECTD409*
4,1,4,0.00306,-0.01846,-0.01701,-0.00779,-0.00306,0.01846,0.01701,0.00779,0.00306,-0.01846,0.0*
%
%ADD409ROTATEDRECTD409*%

G04:AMPARAMS|DCode=410|XSize=29.72mil|YSize=22.72mil|CornerRadius=0mil|HoleSize=0mil|Usage=FLASHONLY|Rotation=278.000|XOffset=0mil|YOffset=0mil|HoleType=Round|Shape=Rectangle|*
%AMROTATEDRECTD410*
4,1,4,-0.01332,0.01314,0.00918,0.01630,0.01332,-0.01314,-0.00918,-0.01630,-0.01332,0.01314,0.0*
%
%ADD410ROTATEDRECTD410*%

G04:AMPARAMS|DCode=411|XSize=29.72mil|YSize=22.72mil|CornerRadius=0mil|HoleSize=0mil|Usage=FLASHONLY|Rotation=54.000|XOffset=0mil|YOffset=0mil|HoleType=Round|Shape=Rectangle|*
%AMROTATEDRECTD411*
4,1,4,0.00046,-0.01870,-0.01793,-0.00535,-0.00046,0.01870,0.01793,0.00535,0.00046,-0.01870,0.0*
%
%ADD411ROTATEDRECTD411*%

G04:AMPARAMS|DCode=412|XSize=29.72mil|YSize=22.72mil|CornerRadius=0mil|HoleSize=0mil|Usage=FLASHONLY|Rotation=267.000|XOffset=0mil|YOffset=0mil|HoleType=Round|Shape=Rectangle|*
%AMROTATEDRECTD412*
4,1,4,-0.01057,0.01544,0.01212,0.01425,0.01057,-0.01544,-0.01212,-0.01425,-0.01057,0.01544,0.0*
%
%ADD412ROTATEDRECTD412*%

G04:AMPARAMS|DCode=413|XSize=29.72mil|YSize=22.72mil|CornerRadius=0mil|HoleSize=0mil|Usage=FLASHONLY|Rotation=45.000|XOffset=0mil|YOffset=0mil|HoleType=Round|Shape=Rectangle|*
%AMROTATEDRECTD413*
4,1,4,-0.00248,-0.01854,-0.01854,-0.00248,0.00248,0.01854,0.01854,0.00248,-0.00248,-0.01854,0.0*
%
%ADD413ROTATEDRECTD413*%

G04:AMPARAMS|DCode=414|XSize=29.72mil|YSize=22.72mil|CornerRadius=0mil|HoleSize=0mil|Usage=FLASHONLY|Rotation=255.000|XOffset=0mil|YOffset=0mil|HoleType=Round|Shape=Rectangle|*
%AMROTATEDRECTD414*
4,1,4,-0.00713,0.01730,0.01482,0.01141,0.00713,-0.01730,-0.01482,-0.01141,-0.00713,0.01730,0.0*
%
%ADD414ROTATEDRECTD414*%

G04:AMPARAMS|DCode=415|XSize=29.72mil|YSize=22.72mil|CornerRadius=0mil|HoleSize=0mil|Usage=FLASHONLY|Rotation=257.000|XOffset=0mil|YOffset=0mil|HoleType=Round|Shape=Rectangle|*
%AMROTATEDRECTD415*
4,1,4,-0.00773,0.01704,0.01441,0.01193,0.00773,-0.01704,-0.01441,-0.01193,-0.00773,0.01704,0.0*
%
%ADD415ROTATEDRECTD415*%

G04:AMPARAMS|DCode=416|XSize=29.72mil|YSize=22.72mil|CornerRadius=0mil|HoleSize=0mil|Usage=FLASHONLY|Rotation=28.000|XOffset=0mil|YOffset=0mil|HoleType=Round|Shape=Rectangle|*
%AMROTATEDRECTD416*
4,1,4,-0.00779,-0.01701,-0.01846,0.00306,0.00779,0.01701,0.01846,-0.00306,-0.00779,-0.01701,0.0*
%
%ADD416ROTATEDRECTD416*%

G04:AMPARAMS|DCode=417|XSize=29.72mil|YSize=22.72mil|CornerRadius=0mil|HoleSize=0mil|Usage=FLASHONLY|Rotation=86.000|XOffset=0mil|YOffset=0mil|HoleType=Round|Shape=Rectangle|*
%AMROTATEDRECTD417*
4,1,4,0.01030,-0.01562,-0.01237,-0.01403,-0.01030,0.01562,0.01237,0.01403,0.01030,-0.01562,0.0*
%
%ADD417ROTATEDRECTD417*%

G04:AMPARAMS|DCode=418|XSize=29.72mil|YSize=22.72mil|CornerRadius=0mil|HoleSize=0mil|Usage=FLASHONLY|Rotation=68.000|XOffset=0mil|YOffset=0mil|HoleType=Round|Shape=Rectangle|*
%AMROTATEDRECTD418*
4,1,4,0.00497,-0.01804,-0.01610,-0.00952,-0.00497,0.01804,0.01610,0.00952,0.00497,-0.01804,0.0*
%
%ADD418ROTATEDRECTD418*%

G04:AMPARAMS|DCode=419|XSize=29.72mil|YSize=22.72mil|CornerRadius=0mil|HoleSize=0mil|Usage=FLASHONLY|Rotation=11.000|XOffset=0mil|YOffset=0mil|HoleType=Round|Shape=Rectangle|*
%AMROTATEDRECTD419*
4,1,4,-0.01242,-0.01399,-0.01676,0.00832,0.01242,0.01399,0.01676,-0.00832,-0.01242,-0.01399,0.0*
%
%ADD419ROTATEDRECTD419*%

G04:AMPARAMS|DCode=420|XSize=29.72mil|YSize=22.72mil|CornerRadius=0mil|HoleSize=0mil|Usage=FLASHONLY|Rotation=64.000|XOffset=0mil|YOffset=0mil|HoleType=Round|Shape=Rectangle|*
%AMROTATEDRECTD420*
4,1,4,0.00370,-0.01834,-0.01673,-0.00838,-0.00370,0.01834,0.01673,0.00838,0.00370,-0.01834,0.0*
%
%ADD420ROTATEDRECTD420*%

G04:AMPARAMS|DCode=421|XSize=29.72mil|YSize=22.72mil|CornerRadius=0mil|HoleSize=0mil|Usage=FLASHONLY|Rotation=2.000|XOffset=0mil|YOffset=0mil|HoleType=Round|Shape=Rectangle|*
%AMROTATEDRECTD421*
4,1,4,-0.01446,-0.01187,-0.01525,0.01084,0.01446,0.01187,0.01525,-0.01084,-0.01446,-0.01187,0.0*
%
%ADD421ROTATEDRECTD421*%

G04:AMPARAMS|DCode=422|XSize=29.72mil|YSize=22.72mil|CornerRadius=0mil|HoleSize=0mil|Usage=FLASHONLY|Rotation=53.000|XOffset=0mil|YOffset=0mil|HoleType=Round|Shape=Rectangle|*
%AMROTATEDRECTD422*
4,1,4,0.00013,-0.01871,-0.01802,-0.00503,-0.00013,0.01871,0.01802,0.00503,0.00013,-0.01871,0.0*
%
%ADD422ROTATEDRECTD422*%

G04:AMPARAMS|DCode=423|XSize=29.72mil|YSize=22.72mil|CornerRadius=0mil|HoleSize=0mil|Usage=FLASHONLY|Rotation=190.000|XOffset=0mil|YOffset=0mil|HoleType=Round|Shape=Rectangle|*
%AMROTATEDRECTD423*
4,1,4,0.01266,0.01377,0.01661,-0.00861,-0.01266,-0.01377,-0.01661,0.00861,0.01266,0.01377,0.0*
%
%ADD423ROTATEDRECTD423*%

G04:AMPARAMS|DCode=424|XSize=29.72mil|YSize=22.72mil|CornerRadius=0mil|HoleSize=0mil|Usage=FLASHONLY|Rotation=178.000|XOffset=0mil|YOffset=0mil|HoleType=Round|Shape=Rectangle|*
%AMROTATEDRECTD424*
4,1,4,0.01525,0.01084,0.01446,-0.01187,-0.01525,-0.01084,-0.01446,0.01187,0.01525,0.01084,0.0*
%
%ADD424ROTATEDRECTD424*%

G04:AMPARAMS|DCode=425|XSize=29.72mil|YSize=22.72mil|CornerRadius=0mil|HoleSize=0mil|Usage=FLASHONLY|Rotation=29.000|XOffset=0mil|YOffset=0mil|HoleType=Round|Shape=Rectangle|*
%AMROTATEDRECTD425*
4,1,4,-0.00749,-0.01714,-0.01851,0.00273,0.00749,0.01714,0.01851,-0.00273,-0.00749,-0.01714,0.0*
%
%ADD425ROTATEDRECTD425*%

G04:AMPARAMS|DCode=426|XSize=29.72mil|YSize=22.72mil|CornerRadius=0mil|HoleSize=0mil|Usage=FLASHONLY|Rotation=313.000|XOffset=0mil|YOffset=0mil|HoleType=Round|Shape=Rectangle|*
%AMROTATEDRECTD426*
4,1,4,-0.01845,0.00312,-0.00183,0.01862,0.01845,-0.00312,0.00183,-0.01862,-0.01845,0.00312,0.0*
%
%ADD426ROTATEDRECTD426*%

G04:AMPARAMS|DCode=427|XSize=29.72mil|YSize=22.72mil|CornerRadius=0mil|HoleSize=0mil|Usage=FLASHONLY|Rotation=328.000|XOffset=0mil|YOffset=0mil|HoleType=Round|Shape=Rectangle|*
%AMROTATEDRECTD427*
4,1,4,-0.01862,-0.00176,-0.00658,0.01751,0.01862,0.00176,0.00658,-0.01751,-0.01862,-0.00176,0.0*
%
%ADD427ROTATEDRECTD427*%

G04:AMPARAMS|DCode=428|XSize=29.72mil|YSize=22.72mil|CornerRadius=0mil|HoleSize=0mil|Usage=FLASHONLY|Rotation=321.000|XOffset=0mil|YOffset=0mil|HoleType=Round|Shape=Rectangle|*
%AMROTATEDRECTD428*
4,1,4,-0.01870,0.00052,-0.00440,0.01818,0.01870,-0.00052,0.00440,-0.01818,-0.01870,0.00052,0.0*
%
%ADD428ROTATEDRECTD428*%

G04:AMPARAMS|DCode=429|XSize=29.72mil|YSize=22.72mil|CornerRadius=0mil|HoleSize=0mil|Usage=FLASHONLY|Rotation=147.000|XOffset=0mil|YOffset=0mil|HoleType=Round|Shape=Rectangle|*
%AMROTATEDRECTD429*
4,1,4,0.01865,0.00144,0.00628,-0.01762,-0.01865,-0.00144,-0.00628,0.01762,0.01865,0.00144,0.0*
%
%ADD429ROTATEDRECTD429*%

%ADD430C,0.06800*%
%ADD431C,0.06706*%
%ADD432R,0.06706X0.06706*%
%ADD433C,0.07099*%
%ADD434R,0.08674X0.08674*%
%ADD435C,0.08674*%
%ADD436C,0.03162*%
D221*
X53239Y-32177D02*
D03*
X55361Y-29146D02*
D03*
D222*
X-66183Y-31274D02*
D03*
X-70810Y-19219D02*
D03*
X-76617Y-21448D02*
D03*
X-71990Y-33503D02*
D03*
D223*
X-166825Y-44693D02*
D03*
X-170167Y-32219D02*
D03*
X-176175Y-33829D02*
D03*
X-172833Y-46303D02*
D03*
X45784Y5464D02*
D03*
X42441Y17937D02*
D03*
X36433Y16327D02*
D03*
X39775Y3854D02*
D03*
X-139233Y-41703D02*
D03*
X-142575Y-29229D02*
D03*
X-136567Y-27619D02*
D03*
X-133225Y-40093D02*
D03*
X-39867Y-6719D02*
D03*
X-36525Y-19193D02*
D03*
X-42533Y-20803D02*
D03*
X-45875Y-8329D02*
D03*
D224*
X-155010Y76784D02*
D03*
X-148749Y88078D02*
D03*
X-154190Y91094D02*
D03*
X-160450Y79800D02*
D03*
D225*
X-12812Y-138561D02*
D03*
X-25629Y-136987D02*
D03*
X-26388Y-143161D02*
D03*
X-13570Y-144735D02*
D03*
D226*
X91372Y26880D02*
D03*
X90228Y30398D02*
D03*
D227*
X17842Y41672D02*
D03*
X5368Y45014D02*
D03*
X3758Y39006D02*
D03*
X16232Y35664D02*
D03*
X-22068Y-110237D02*
D03*
X-34542Y-106894D02*
D03*
X-32932Y-100886D02*
D03*
X-20458Y-104228D02*
D03*
D228*
X30277Y-54079D02*
D03*
X26923Y-55643D02*
D03*
D229*
X51300Y13239D02*
D03*
X50342Y16813D02*
D03*
X-125092Y-28974D02*
D03*
X-124135Y-32548D02*
D03*
X-51200Y-17661D02*
D03*
X-52158Y-14087D02*
D03*
D230*
X74215Y-104560D02*
D03*
X71185Y-106682D02*
D03*
D231*
X-113868Y59505D02*
D03*
X-112132Y62772D02*
D03*
X83931Y-44594D02*
D03*
X85668Y-41328D02*
D03*
D232*
X-101913Y78162D02*
D03*
X-99687Y81116D02*
D03*
X130187Y-96674D02*
D03*
X132413Y-93719D02*
D03*
D233*
X-3350Y128339D02*
D03*
X350D02*
D03*
X-2050Y-127961D02*
D03*
X1650D02*
D03*
X8650Y161839D02*
D03*
X4950D02*
D03*
X-9150Y-161561D02*
D03*
X-5450D02*
D03*
D234*
X1651Y95303D02*
D03*
X5349Y95174D02*
D03*
D235*
X99013Y81628D02*
D03*
X101187Y78635D02*
D03*
D236*
X68762Y66414D02*
D03*
X71238Y63664D02*
D03*
X-71976Y-62311D02*
D03*
X-69500Y-65061D02*
D03*
D237*
X-2700Y21739D02*
D03*
X3300D02*
D03*
X-2700Y28039D02*
D03*
X3300D02*
D03*
D238*
X35743Y169183D02*
D03*
X48273Y166059D02*
D03*
X49777Y172095D02*
D03*
X37248Y175219D02*
D03*
X20888Y110619D02*
D03*
X33417Y107495D02*
D03*
X31912Y101459D02*
D03*
X19383Y104583D02*
D03*
D239*
X-91734Y133304D02*
D03*
X-88666Y135373D02*
D03*
X87066Y-136596D02*
D03*
X90134Y-134527D02*
D03*
D240*
X-102114Y139650D02*
D03*
X-91408Y146871D02*
D03*
X-94886Y152028D02*
D03*
X-105592Y144807D02*
D03*
X103813Y-145761D02*
D03*
X93108Y-152982D02*
D03*
X89629Y-147825D02*
D03*
X100335Y-140604D02*
D03*
D241*
X-157579Y37252D02*
D03*
X-156621Y40826D02*
D03*
X157179Y-37574D02*
D03*
X156221Y-41148D02*
D03*
X-53013Y8552D02*
D03*
X-52055Y12126D02*
D03*
X-60342Y13413D02*
D03*
X-61300Y9839D02*
D03*
X52579Y-11174D02*
D03*
X51621Y-14748D02*
D03*
X60442Y-14235D02*
D03*
X61400Y-10661D02*
D03*
X123821Y-32180D02*
D03*
X124779Y-28606D02*
D03*
D242*
X20436Y-160336D02*
D03*
X16764Y-160786D02*
D03*
D243*
X162960Y-58102D02*
D03*
X157914Y-69989D02*
D03*
X163640Y-72420D02*
D03*
X168686Y-60533D02*
D03*
X-104586Y40711D02*
D03*
X-99540Y52598D02*
D03*
X-93814Y50167D02*
D03*
X-98860Y38280D02*
D03*
D244*
X-138782Y1995D02*
D03*
X-138331Y14900D02*
D03*
X-144548Y15117D02*
D03*
X-144998Y2212D02*
D03*
D245*
X-76884Y73116D02*
D03*
X-67595Y82087D02*
D03*
X-71916Y86562D02*
D03*
X-81205Y77591D02*
D03*
D246*
X-66631Y68137D02*
D03*
X-63969Y70707D02*
D03*
D247*
X-68243Y165629D02*
D03*
X-56187Y170256D02*
D03*
X-53958Y164449D02*
D03*
X-66013Y159821D02*
D03*
D248*
X-136932Y115622D02*
D03*
X-128291Y125218D02*
D03*
X-123668Y121056D02*
D03*
X-132309Y111460D02*
D03*
X136032Y-116201D02*
D03*
X127391Y-125798D02*
D03*
X122768Y-121636D02*
D03*
X131409Y-112039D02*
D03*
D249*
X-174875Y39607D02*
D03*
X-171533Y52081D02*
D03*
X-165525Y50471D02*
D03*
X-168867Y37997D02*
D03*
X174975Y-38729D02*
D03*
X171633Y-51203D02*
D03*
X165625Y-49593D02*
D03*
X168967Y-37119D02*
D03*
X143075Y-27229D02*
D03*
X139733Y-39703D02*
D03*
X133725Y-38093D02*
D03*
X137067Y-25619D02*
D03*
X-78675Y11207D02*
D03*
X-75333Y23681D02*
D03*
X-69325Y22071D02*
D03*
X-72667Y9597D02*
D03*
X78200Y-11861D02*
D03*
X74858Y-24334D02*
D03*
X68849Y-22724D02*
D03*
X72192Y-10251D02*
D03*
X37825Y-16936D02*
D03*
X41167Y-4462D02*
D03*
X47175Y-6072D02*
D03*
X43833Y-18546D02*
D03*
X-37125Y14071D02*
D03*
X-40467Y1597D02*
D03*
X-46475Y3207D02*
D03*
X-43133Y15681D02*
D03*
D250*
X-48091Y172817D02*
D03*
X-35508Y175722D02*
D03*
X-34109Y169661D02*
D03*
X-46692Y166756D02*
D03*
X45474Y-173083D02*
D03*
X32891Y-175988D02*
D03*
X31492Y-169927D02*
D03*
X44074Y-167022D02*
D03*
D251*
X-122113Y131150D02*
D03*
X-112368Y139622D02*
D03*
X-108287Y134928D02*
D03*
X-118032Y126456D02*
D03*
D252*
X-169002Y60118D02*
D03*
X-164165Y72091D02*
D03*
X-158397Y69760D02*
D03*
X-163235Y57787D02*
D03*
X137503Y-47640D02*
D03*
X132665Y-59613D02*
D03*
X126898Y-57283D02*
D03*
X131735Y-45309D02*
D03*
D253*
X-27046Y177107D02*
D03*
X-14204Y178457D02*
D03*
X-13554Y172271D02*
D03*
X-26396Y170921D02*
D03*
D254*
X-87561Y156154D02*
D03*
X-76159Y162216D02*
D03*
X-73239Y156724D02*
D03*
X-84641Y150662D02*
D03*
X85161Y-157276D02*
D03*
X73759Y-163338D02*
D03*
X70839Y-157846D02*
D03*
X82241Y-151784D02*
D03*
X-70461Y126954D02*
D03*
X-59059Y133016D02*
D03*
X-56139Y127524D02*
D03*
X-67541Y121461D02*
D03*
D255*
X-6157Y179349D02*
D03*
X6757D02*
D03*
Y173129D02*
D03*
X-6157D02*
D03*
X3200Y-178761D02*
D03*
X-9713D02*
D03*
Y-172541D02*
D03*
X3200D02*
D03*
X-6257Y145249D02*
D03*
X6657D02*
D03*
Y139029D02*
D03*
X-6257D02*
D03*
D256*
X-149832Y98395D02*
D03*
X-142242Y108842D02*
D03*
X-137210Y105186D02*
D03*
X-144800Y94739D02*
D03*
X-95011Y60343D02*
D03*
X-87421Y70791D02*
D03*
X-82389Y67134D02*
D03*
X-89979Y56687D02*
D03*
D257*
X-131211Y-121874D02*
D03*
X-139683Y-112129D02*
D03*
X-134989Y-108048D02*
D03*
X-126517Y-117794D02*
D03*
X130411Y122905D02*
D03*
X138883Y113159D02*
D03*
X134189Y109078D02*
D03*
X125717Y118824D02*
D03*
D258*
X-60872Y-168547D02*
D03*
X-72759Y-163501D02*
D03*
X-70328Y-157775D02*
D03*
X-58441Y-162821D02*
D03*
D259*
X-177400Y-24949D02*
D03*
X-178974Y-12132D02*
D03*
X-172800Y-11373D02*
D03*
X-171226Y-24191D02*
D03*
D260*
X-144968Y-105353D02*
D03*
X-152189Y-94647D02*
D03*
X-147032Y-91169D02*
D03*
X-139811Y-101875D02*
D03*
D261*
X-80061Y-160212D02*
D03*
X-91355Y-153951D02*
D03*
X-88339Y-148511D02*
D03*
X-77045Y-154771D02*
D03*
D262*
X-179110Y-3267D02*
D03*
Y9647D02*
D03*
X-172890Y9647D02*
D03*
X-172890Y-3267D02*
D03*
X-112010Y-2018D02*
D03*
X-112010Y10896D02*
D03*
X-105790D02*
D03*
Y-2018D02*
D03*
X78700Y10539D02*
D03*
Y-2374D02*
D03*
X72479D02*
D03*
Y10539D02*
D03*
D263*
X-156540Y-87258D02*
D03*
X-162402Y-75752D02*
D03*
X-156860Y-72928D02*
D03*
X-150997Y-84434D02*
D03*
X156037Y88345D02*
D03*
X161900Y76839D02*
D03*
X156358Y74015D02*
D03*
X150495Y85521D02*
D03*
D264*
X-98195Y-149612D02*
D03*
X-108773Y-142205D02*
D03*
X-105205Y-137110D02*
D03*
X-94627Y-144517D02*
D03*
D265*
X-178174Y18209D02*
D03*
X-176600Y31027D02*
D03*
X-170426Y30268D02*
D03*
X-172000Y17451D02*
D03*
D266*
X-166214Y-66947D02*
D03*
X-170631Y-54812D02*
D03*
X-164786Y-52685D02*
D03*
X-160369Y-64819D02*
D03*
X165583Y68705D02*
D03*
X170000Y56570D02*
D03*
X164155Y54443D02*
D03*
X159738Y66577D02*
D03*
X134214Y56570D02*
D03*
X138631Y44435D02*
D03*
X132786Y42308D02*
D03*
X128369Y54443D02*
D03*
X-103414Y-44092D02*
D03*
X-107831Y-31958D02*
D03*
X-101986Y-29830D02*
D03*
X-97569Y-41965D02*
D03*
X72414Y32470D02*
D03*
X76831Y20335D02*
D03*
X70986Y18208D02*
D03*
X66569Y30343D02*
D03*
D267*
X-115054Y-136933D02*
D03*
X-124800Y-128461D02*
D03*
X-120719Y-123766D02*
D03*
X-110973Y-132238D02*
D03*
X-91854Y-112933D02*
D03*
X-101600Y-104461D02*
D03*
X-97519Y-99766D02*
D03*
X-87773Y-108238D02*
D03*
D268*
X24788Y-177261D02*
D03*
X11970Y-178835D02*
D03*
X11212Y-172661D02*
D03*
X24029Y-171087D02*
D03*
D269*
X120845Y-132193D02*
D03*
X110953Y-140494D02*
D03*
X106955Y-135729D02*
D03*
X116847Y-127428D02*
D03*
X78345Y-80093D02*
D03*
X68453Y-88394D02*
D03*
X64455Y-83629D02*
D03*
X74347Y-75328D02*
D03*
D270*
X-18651Y-178139D02*
D03*
X-31439Y-176342D02*
D03*
X-30573Y-170182D02*
D03*
X-17786Y-171979D02*
D03*
X15839Y178517D02*
D03*
X28627Y176720D02*
D03*
X27761Y170560D02*
D03*
X14973Y172358D02*
D03*
D271*
X160200Y-80461D02*
D03*
X153743Y-91644D02*
D03*
X148356Y-88534D02*
D03*
X154813Y-77351D02*
D03*
X-72500Y32470D02*
D03*
X-66043Y43653D02*
D03*
X-60656Y40543D02*
D03*
X-67113Y29360D02*
D03*
D272*
X-40251Y-174530D02*
D03*
X-52664Y-170971D02*
D03*
X-50949Y-164992D02*
D03*
X-38536Y-168551D02*
D03*
X-34818Y-140993D02*
D03*
X-47231Y-137434D02*
D03*
X-45516Y-131454D02*
D03*
X-33103Y-135014D02*
D03*
X-14527Y-38092D02*
D03*
X-2114Y-41651D02*
D03*
X-3829Y-47631D02*
D03*
X-16242Y-44071D02*
D03*
D273*
X65518Y-166675D02*
D03*
X53383Y-171092D02*
D03*
X51256Y-165247D02*
D03*
X63390Y-160830D02*
D03*
X42231Y-104075D02*
D03*
X30097Y-108492D02*
D03*
X27969Y-102647D02*
D03*
X40104Y-98230D02*
D03*
D274*
X149270Y-99051D02*
D03*
X141498Y-109364D02*
D03*
X136530Y-105621D02*
D03*
X144302Y-95308D02*
D03*
X-118970Y83354D02*
D03*
X-111198Y93667D02*
D03*
X-106230Y89924D02*
D03*
X-114002Y79611D02*
D03*
D275*
X172456Y48156D02*
D03*
X175580Y35627D02*
D03*
X169544Y34122D02*
D03*
X166420Y46651D02*
D03*
D276*
X114783Y137671D02*
D03*
X124379Y129030D02*
D03*
X120217Y124407D02*
D03*
X110621Y133048D02*
D03*
D277*
X177218Y26285D02*
D03*
X178568Y13443D02*
D03*
X172382Y12792D02*
D03*
X171032Y25635D02*
D03*
X-144018Y-20407D02*
D03*
X-145368Y-7565D02*
D03*
X-139182Y-6915D02*
D03*
X-137832Y-19757D02*
D03*
X111018Y19285D02*
D03*
X112368Y6443D02*
D03*
X106182Y5793D02*
D03*
X104832Y18635D02*
D03*
X-78218Y-11776D02*
D03*
X-79568Y1067D02*
D03*
X-73382Y1717D02*
D03*
X-72032Y-11126D02*
D03*
D278*
X179122Y5140D02*
D03*
X178897Y-7771D02*
D03*
X172678Y-7662D02*
D03*
X172903Y5249D02*
D03*
D279*
X58387Y169457D02*
D03*
X70442Y164829D02*
D03*
X68213Y159021D02*
D03*
X56157Y163649D02*
D03*
D280*
X144144Y106412D02*
D03*
X151551Y95834D02*
D03*
X146456Y92266D02*
D03*
X139049Y102844D02*
D03*
X60244Y51012D02*
D03*
X67651Y40434D02*
D03*
X62556Y36866D02*
D03*
X55149Y47444D02*
D03*
D281*
X178442Y-17144D02*
D03*
X176200Y-29861D02*
D03*
X170074Y-28781D02*
D03*
X172317Y-16064D02*
D03*
D282*
X77818Y161344D02*
D03*
X89324Y155481D02*
D03*
X86500Y149939D02*
D03*
X74994Y155801D02*
D03*
D283*
X97037Y150628D02*
D03*
X107743Y143407D02*
D03*
X104264Y138250D02*
D03*
X93559Y145471D02*
D03*
D284*
X-50581Y136479D02*
D03*
X-38300Y140470D02*
D03*
X-36378Y134554D02*
D03*
X-48659Y130563D02*
D03*
X51502Y-136224D02*
D03*
X39220Y-140214D02*
D03*
X37298Y-134298D02*
D03*
X49580Y-130308D02*
D03*
D285*
X-29399Y142281D02*
D03*
X-16681Y144523D02*
D03*
X-15601Y138397D02*
D03*
X-28319Y136155D02*
D03*
X29500Y-142361D02*
D03*
X16783Y-144603D02*
D03*
X15703Y-138478D02*
D03*
X28420Y-136235D02*
D03*
X-21099Y76781D02*
D03*
X-8382Y79023D02*
D03*
X-7301Y72897D02*
D03*
X-20019Y70655D02*
D03*
D286*
X-104731Y100108D02*
D03*
X-95600Y109239D02*
D03*
X-91202Y104840D02*
D03*
X-100333Y95709D02*
D03*
X-60565Y51673D02*
D03*
X-51434Y60804D02*
D03*
X-47035Y56405D02*
D03*
X-56166Y47274D02*
D03*
X-23235Y31805D02*
D03*
X-32366Y22674D02*
D03*
X-36765Y27073D02*
D03*
X-27634Y36204D02*
D03*
X24435Y-32827D02*
D03*
X33566Y-23696D02*
D03*
X37965Y-28095D02*
D03*
X28834Y-37226D02*
D03*
D287*
X-88752Y115160D02*
D03*
X-78305Y122750D02*
D03*
X-74648Y117718D02*
D03*
X-85095Y110128D02*
D03*
D288*
X-143185Y23694D02*
D03*
X-140721Y36371D02*
D03*
X-134615Y35184D02*
D03*
X-137079Y22507D02*
D03*
D289*
X15682Y144623D02*
D03*
X28399Y142381D02*
D03*
X27319Y136255D02*
D03*
X14601Y138497D02*
D03*
D290*
X-138331Y44535D02*
D03*
X-133914Y56670D02*
D03*
X-128069Y54542D02*
D03*
X-132486Y42408D02*
D03*
D291*
X-130377Y64098D02*
D03*
X-124315Y75500D02*
D03*
X-118823Y72580D02*
D03*
X-124885Y61178D02*
D03*
X103055Y-44780D02*
D03*
X96992Y-56181D02*
D03*
X91500Y-53261D02*
D03*
X97562Y-41859D02*
D03*
D292*
X-107332Y-98496D02*
D03*
X-115633Y-88603D02*
D03*
X-110868Y-84605D02*
D03*
X-102567Y-94497D02*
D03*
D293*
X70767Y-127326D02*
D03*
X59160Y-132987D02*
D03*
X56433Y-127396D02*
D03*
X68040Y-121735D02*
D03*
D294*
X-120616Y-81185D02*
D03*
X-127459Y-70234D02*
D03*
X-122184Y-66937D02*
D03*
X-115341Y-77889D02*
D03*
X-93030Y-63285D02*
D03*
X-99873Y-52334D02*
D03*
X-94598Y-49037D02*
D03*
X-87755Y-59988D02*
D03*
D295*
X-55163Y-134809D02*
D03*
X-66866Y-129351D02*
D03*
X-64237Y-123714D02*
D03*
X-52534Y-129171D02*
D03*
D296*
X-131430Y-62188D02*
D03*
X-136683Y-50391D02*
D03*
X-131000Y-47861D02*
D03*
X-125748Y-59658D02*
D03*
D297*
X-74279Y-125044D02*
D03*
X-85109Y-118010D02*
D03*
X-81721Y-112794D02*
D03*
X-70891Y-119827D02*
D03*
D298*
X7610Y-145158D02*
D03*
X-5301Y-145384D02*
D03*
X-5410Y-139164D02*
D03*
X7501Y-138939D02*
D03*
D299*
X37797Y140470D02*
D03*
X49931Y136053D02*
D03*
X47804Y130208D02*
D03*
X35669Y134625D02*
D03*
X-22296Y-75992D02*
D03*
X-34431Y-71575D02*
D03*
X-32304Y-65730D02*
D03*
X-20169Y-70147D02*
D03*
D300*
X58759Y132816D02*
D03*
X70161Y126754D02*
D03*
X67241Y121262D02*
D03*
X55839Y127324D02*
D03*
D301*
X129059Y-67334D02*
D03*
X122216Y-78285D02*
D03*
X116941Y-74989D02*
D03*
X123784Y-64037D02*
D03*
D302*
X141036Y35915D02*
D03*
X143500Y23239D02*
D03*
X137394Y22052D02*
D03*
X134930Y34728D02*
D03*
D303*
X78205Y122250D02*
D03*
X88652Y114660D02*
D03*
X84995Y109627D02*
D03*
X74548Y117218D02*
D03*
D304*
X117900Y-85161D02*
D03*
X109773Y-95197D02*
D03*
X104939Y-91282D02*
D03*
X113066Y-81246D02*
D03*
D305*
X144683Y14900D02*
D03*
X145134Y1995D02*
D03*
X138917Y1778D02*
D03*
X138466Y14683D02*
D03*
D306*
X95834Y109204D02*
D03*
X104965Y100073D02*
D03*
X100566Y95674D02*
D03*
X91435Y104805D02*
D03*
X-31366Y-25527D02*
D03*
X-22235Y-34659D02*
D03*
X-26634Y-39057D02*
D03*
X-35765Y-29926D02*
D03*
X32666Y22674D02*
D03*
X23535Y31805D02*
D03*
X27934Y36204D02*
D03*
X37065Y27073D02*
D03*
D307*
X104379Y-101652D02*
D03*
X94783Y-110293D02*
D03*
X90621Y-105670D02*
D03*
X100217Y-97029D02*
D03*
D308*
X145361Y-6000D02*
D03*
X144236Y-18864D02*
D03*
X138039Y-18322D02*
D03*
X139164Y-5458D02*
D03*
X112461Y-2100D02*
D03*
X111336Y-14964D02*
D03*
X105139Y-14422D02*
D03*
X106264Y-1558D02*
D03*
D309*
X111182Y93613D02*
D03*
X118773Y83166D02*
D03*
X113740Y79510D02*
D03*
X106150Y89957D02*
D03*
D310*
X88473Y-115805D02*
D03*
X77895Y-123212D02*
D03*
X74327Y-118117D02*
D03*
X84905Y-110710D02*
D03*
D311*
X124137Y75941D02*
D03*
X130200Y64539D02*
D03*
X124708Y61619D02*
D03*
X118645Y73020D02*
D03*
D312*
X-64309Y92331D02*
D03*
X-53479Y99364D02*
D03*
X-50091Y94147D02*
D03*
X-60921Y87114D02*
D03*
D313*
X-110683Y19947D02*
D03*
X-107778Y32530D02*
D03*
X-101717Y31130D02*
D03*
X-104622Y18548D02*
D03*
D314*
X-44752Y103104D02*
D03*
X-32779Y107941D02*
D03*
X-30448Y102174D02*
D03*
X-42421Y97337D02*
D03*
D315*
X-23695Y110001D02*
D03*
X-10941Y112021D02*
D03*
X-9968Y105877D02*
D03*
X-22722Y103857D02*
D03*
D316*
X-1444Y112573D02*
D03*
X11461Y112122D02*
D03*
X11244Y105905D02*
D03*
X-1661Y106356D02*
D03*
D317*
X-42460Y-104121D02*
D03*
X-54067Y-98461D02*
D03*
X-51340Y-92870D02*
D03*
X-39733Y-98531D02*
D03*
X42760Y104365D02*
D03*
X54367Y98704D02*
D03*
X51640Y93113D02*
D03*
X40033Y98774D02*
D03*
D318*
X21127Y-110442D02*
D03*
X8339Y-112240D02*
D03*
X7473Y-106080D02*
D03*
X20261Y-104282D02*
D03*
D319*
X-62315Y-93731D02*
D03*
X-72628Y-85959D02*
D03*
X-68885Y-80991D02*
D03*
X-58572Y-88763D02*
D03*
X62815Y93509D02*
D03*
X73128Y85737D02*
D03*
X69385Y80769D02*
D03*
X59072Y88541D02*
D03*
D320*
X-109800Y-23761D02*
D03*
X-112042Y-11044D02*
D03*
X-105916Y-9964D02*
D03*
X-103674Y-22681D02*
D03*
D321*
X-315Y-112405D02*
D03*
X-13211Y-111729D02*
D03*
X-12885Y-105517D02*
D03*
X11Y-106193D02*
D03*
D322*
X-79076Y-79604D02*
D03*
X-87883Y-70160D02*
D03*
X-83334Y-65918D02*
D03*
X-74527Y-75362D02*
D03*
D323*
X104863Y40841D02*
D03*
X108853Y28559D02*
D03*
X102937Y26637D02*
D03*
X98947Y38919D02*
D03*
D324*
X92033Y-63814D02*
D03*
X83732Y-73706D02*
D03*
X78967Y-69708D02*
D03*
X87268Y-59816D02*
D03*
D325*
X80291Y79018D02*
D03*
X88932Y69422D02*
D03*
X84309Y65259D02*
D03*
X75668Y74856D02*
D03*
D326*
X94390Y61194D02*
D03*
X100651Y49900D02*
D03*
X95210Y46884D02*
D03*
X88950Y58178D02*
D03*
D327*
X61600Y-93961D02*
D03*
X50417Y-100418D02*
D03*
X47306Y-95031D02*
D03*
X58490Y-88574D02*
D03*
X-42947Y66404D02*
D03*
X-31763Y72861D02*
D03*
X-28653Y67474D02*
D03*
X-39836Y61017D02*
D03*
D328*
X109762Y-23896D02*
D03*
X105987Y-36245D02*
D03*
X100038Y-34426D02*
D03*
X103813Y-22077D02*
D03*
D329*
X876Y79392D02*
D03*
X13758Y78491D02*
D03*
X13324Y72286D02*
D03*
X442Y73187D02*
D03*
D330*
X-42827Y-66687D02*
D03*
X-53003Y-58737D02*
D03*
X-49173Y-53835D02*
D03*
X-38997Y-61785D02*
D03*
D331*
X23679Y76141D02*
D03*
X35652Y71304D02*
D03*
X33321Y65536D02*
D03*
X21348Y70374D02*
D03*
D332*
X-59498Y-51989D02*
D03*
X-67270Y-41676D02*
D03*
X-62302Y-37933D02*
D03*
X-54530Y-48246D02*
D03*
D333*
X43953Y66372D02*
D03*
X53845Y58071D02*
D03*
X49847Y53306D02*
D03*
X39955Y61607D02*
D03*
D334*
X71500Y-33961D02*
D03*
X64093Y-44539D02*
D03*
X58998Y-40971D02*
D03*
X66404Y-30393D02*
D03*
D335*
X59543Y-52432D02*
D03*
X50099Y-61239D02*
D03*
X45857Y-56690D02*
D03*
X55301Y-47883D02*
D03*
D336*
X42266Y-67251D02*
D03*
X30563Y-72709D02*
D03*
X27934Y-67071D02*
D03*
X39637Y-61614D02*
D03*
D337*
X22262Y-76061D02*
D03*
X9631Y-78746D02*
D03*
X8338Y-72661D02*
D03*
X20969Y-69976D02*
D03*
D338*
X-339Y-79322D02*
D03*
X-13203Y-78197D02*
D03*
X-12661Y-72000D02*
D03*
X203Y-73125D02*
D03*
D339*
X-3758Y39101D02*
D03*
X-16232Y35759D02*
D03*
X-17842Y41767D02*
D03*
X-5368Y45109D02*
D03*
X6017Y-40495D02*
D03*
X18490Y-37153D02*
D03*
X20100Y-43161D02*
D03*
X7627Y-46503D02*
D03*
D340*
X87750Y-93337D02*
D03*
X90500Y-90861D02*
D03*
D341*
X-109896Y-118747D02*
D03*
X-107104Y-121175D02*
D03*
X-85796Y-95347D02*
D03*
X-83004Y-97775D02*
D03*
D342*
X161093Y16399D02*
D03*
X160707Y20079D02*
D03*
X-127493Y-13124D02*
D03*
X-127107Y-16804D02*
D03*
X94693Y9799D02*
D03*
X94307Y13479D02*
D03*
D343*
X-87031Y94342D02*
D03*
X-89647Y91726D02*
D03*
X-40108Y34392D02*
D03*
X-37492Y37008D02*
D03*
X41408Y-35553D02*
D03*
X38792Y-38169D02*
D03*
X-41825Y46247D02*
D03*
X-44441Y43631D02*
D03*
D344*
X-124714Y-103164D02*
D03*
X-122286Y-105956D02*
D03*
X123314Y105130D02*
D03*
X120886Y107923D02*
D03*
D345*
X161700Y-8911D02*
D03*
Y-5211D02*
D03*
X-161700Y9239D02*
D03*
Y5539D02*
D03*
X61700Y2689D02*
D03*
Y6389D02*
D03*
D346*
X55537Y-115472D02*
D03*
X58863Y-113850D02*
D03*
D347*
X-71403Y106526D02*
D03*
X-74397Y104351D02*
D03*
D348*
X-135708Y-88010D02*
D03*
X-133692Y-91113D02*
D03*
D349*
X160343Y-20493D02*
D03*
X160857Y-16829D02*
D03*
D350*
X37241Y-122533D02*
D03*
X40759Y-121389D02*
D03*
X-37974Y122611D02*
D03*
X-41493Y121467D02*
D03*
D351*
X-55452Y115579D02*
D03*
X-58748Y113899D02*
D03*
X-28252Y55179D02*
D03*
X-31548Y53499D02*
D03*
D352*
X-144740Y-72513D02*
D03*
X-143060Y-75809D02*
D03*
X144600Y72739D02*
D03*
X142920Y76036D02*
D03*
D353*
X20178Y-126582D02*
D03*
X23822Y-125940D02*
D03*
X-16878Y127260D02*
D03*
X-20522Y126618D02*
D03*
X-11063Y61060D02*
D03*
X-14707Y60418D02*
D03*
D354*
X-153433Y-51323D02*
D03*
X-152167Y-54799D02*
D03*
X151833Y55901D02*
D03*
X150567Y59377D02*
D03*
X120933Y42900D02*
D03*
X119667Y46377D02*
D03*
X58666Y19962D02*
D03*
X57400Y23439D02*
D03*
X-89533Y-31823D02*
D03*
X-88267Y-35300D02*
D03*
D355*
X149577Y-62064D02*
D03*
X151023Y-58658D02*
D03*
X-86077Y40842D02*
D03*
X-87523Y37436D02*
D03*
D356*
X-158416Y-32759D02*
D03*
X-157584Y-36364D02*
D03*
D357*
X141475Y-78763D02*
D03*
X143325Y-75559D02*
D03*
X-53800Y30539D02*
D03*
X-55650Y27335D02*
D03*
D358*
X-18036Y-126836D02*
D03*
X-14364Y-127287D02*
D03*
D359*
X-160851Y-15825D02*
D03*
X-160400Y-19497D02*
D03*
D360*
X-37578Y-122351D02*
D03*
X-34022Y-123371D02*
D03*
X-43078Y-155851D02*
D03*
X-39522Y-156871D02*
D03*
X-12122Y-53371D02*
D03*
X-15678Y-52351D02*
D03*
D361*
X18500Y126754D02*
D03*
X14856Y127396D02*
D03*
D362*
X118062Y-110536D02*
D03*
X120538Y-107786D02*
D03*
X-118262Y110714D02*
D03*
X-120738Y107964D02*
D03*
D363*
X-52777Y-116679D02*
D03*
X-49423Y-118243D02*
D03*
X-43877Y-84279D02*
D03*
X-40523Y-85843D02*
D03*
D364*
X-160175Y23475D02*
D03*
X-160626Y19803D02*
D03*
D365*
X103283Y-124350D02*
D03*
X106117Y-121972D02*
D03*
X59783Y-74314D02*
D03*
X62617Y-71936D02*
D03*
D366*
X-70851Y-106754D02*
D03*
X-67748Y-108769D02*
D03*
D367*
X22632Y160381D02*
D03*
X18968Y160896D02*
D03*
X-22290Y-160104D02*
D03*
X-18626Y-160618D02*
D03*
D368*
X40495Y156691D02*
D03*
X36905Y157587D02*
D03*
X24200Y92139D02*
D03*
X20610Y93034D02*
D03*
D369*
X-149807Y61454D02*
D03*
X-151193Y58024D02*
D03*
X118907Y-48018D02*
D03*
X120293Y-44587D02*
D03*
D370*
X69067Y-146130D02*
D03*
X72334Y-144393D02*
D03*
X-72566Y144708D02*
D03*
X-75833Y142970D02*
D03*
D371*
X-98378Y-82327D02*
D03*
X-96000Y-85161D02*
D03*
D372*
X59127Y150876D02*
D03*
X55673Y152202D02*
D03*
D373*
X-141803Y78257D02*
D03*
X-143597Y75021D02*
D03*
D374*
X51662Y-153394D02*
D03*
X55138Y-152128D02*
D03*
X28362Y-90494D02*
D03*
X31838Y-89228D02*
D03*
D375*
X-110380Y-65682D02*
D03*
X-108420Y-68820D02*
D03*
X-81461Y-49294D02*
D03*
X-79500Y-52432D02*
D03*
D376*
X76197Y143099D02*
D03*
X72900Y144779D02*
D03*
D377*
X-130713Y95336D02*
D03*
X-132887Y92342D02*
D03*
D378*
X33897Y-158191D02*
D03*
X37503Y-157359D02*
D03*
D379*
X-119000Y-47482D02*
D03*
X-117495Y-50862D02*
D03*
D380*
X93803Y132204D02*
D03*
X90736Y134274D02*
D03*
D381*
X110675Y118301D02*
D03*
X107925Y120777D02*
D03*
D382*
X-103504Y124853D02*
D03*
X-106296Y122425D02*
D03*
D383*
X-127803Y9886D02*
D03*
X-127997Y6191D02*
D03*
D384*
X133261Y92023D02*
D03*
X131139Y95054D02*
D03*
X51161Y34323D02*
D03*
X49039Y37354D02*
D03*
D385*
X-125184Y27942D02*
D03*
X-126016Y24336D02*
D03*
X-92468Y22644D02*
D03*
X-93300Y19039D02*
D03*
D386*
X-53073Y153002D02*
D03*
X-56527Y151676D02*
D03*
X-30400Y90239D02*
D03*
X-33854Y88913D02*
D03*
D387*
X-59703Y-150138D02*
D03*
X-56297Y-151584D02*
D03*
D388*
X-119634Y45616D02*
D03*
X-120900Y42139D02*
D03*
D389*
X-33970Y158486D02*
D03*
X-37560Y157591D02*
D03*
D390*
X-79318Y-140964D02*
D03*
X-76082Y-142758D02*
D03*
D391*
X157648Y37124D02*
D03*
X156752Y40714D02*
D03*
D392*
X-17160Y161032D02*
D03*
X-20840Y160646D02*
D03*
D393*
X-95315Y-130700D02*
D03*
X-92285Y-132822D02*
D03*
X-57682Y-75700D02*
D03*
X-54651Y-77822D02*
D03*
D394*
X-15487Y49960D02*
D03*
X-11913Y50918D02*
D03*
X18487Y-51782D02*
D03*
X14913Y-52740D02*
D03*
D395*
X10190Y-61246D02*
D03*
X13810Y-60476D02*
D03*
D396*
X94500Y-10475D02*
D03*
X94823Y-6789D02*
D03*
X127677Y-9614D02*
D03*
X127999Y-5928D02*
D03*
D397*
X-5343Y-61700D02*
D03*
X-1657Y-62022D02*
D03*
D398*
X-48658Y82147D02*
D03*
X-51762Y80131D02*
D03*
D399*
X91300Y-27561D02*
D03*
X92382Y-24023D02*
D03*
D400*
X-23138Y-57328D02*
D03*
X-19662Y-58594D02*
D03*
X40938Y121618D02*
D03*
X37462Y122883D02*
D03*
D401*
X-39658Y-47722D02*
D03*
X-36742Y-50000D02*
D03*
D402*
X-12377Y94628D02*
D03*
X-16031Y94050D02*
D03*
D403*
X75011Y-58478D02*
D03*
X77389Y-55644D02*
D03*
D404*
X-35383Y-41684D02*
D03*
X-38217Y-39306D02*
D03*
X40217Y47650D02*
D03*
X37383Y50028D02*
D03*
D405*
X-51313Y-34784D02*
D03*
X-49087Y-37738D02*
D03*
D406*
X-58963Y-19934D02*
D03*
X-57637Y-23388D02*
D03*
D407*
X45696Y-83511D02*
D03*
X48900Y-81661D02*
D03*
D408*
X-62297Y-2014D02*
D03*
X-62103Y-5708D02*
D03*
D409*
X58934Y113970D02*
D03*
X55667Y115708D02*
D03*
D410*
X9436Y-94476D02*
D03*
X13100Y-93961D02*
D03*
D411*
X74697Y104252D02*
D03*
X71703Y106426D02*
D03*
D412*
X-8200Y-94861D02*
D03*
X-4505Y-95055D02*
D03*
D413*
X89708Y91805D02*
D03*
X87092Y94421D02*
D03*
X36184Y38280D02*
D03*
X38800Y35664D02*
D03*
D414*
X-27487Y-91121D02*
D03*
X-23913Y-92079D02*
D03*
D415*
X10895Y50971D02*
D03*
X14500Y50139D02*
D03*
D416*
X112969Y60606D02*
D03*
X111232Y63872D02*
D03*
D417*
X8145Y61478D02*
D03*
X4454Y61736D02*
D03*
D418*
X24715Y57046D02*
D03*
X21285Y58432D02*
D03*
D419*
X125853Y24923D02*
D03*
X125147Y28555D02*
D03*
D420*
X42563Y85228D02*
D03*
X39237Y86850D02*
D03*
D421*
X128065Y6690D02*
D03*
X127935Y10388D02*
D03*
D422*
X59178Y75039D02*
D03*
X56222Y77266D02*
D03*
D423*
X-94243Y-13617D02*
D03*
X-93600Y-17261D02*
D03*
D424*
X-94871Y5692D02*
D03*
X-95000Y1995D02*
D03*
D425*
X83697Y45621D02*
D03*
X81903Y48857D02*
D03*
D426*
X42394Y-45184D02*
D03*
X45100Y-42661D02*
D03*
D427*
X111139Y-64599D02*
D03*
X113100Y-61461D02*
D03*
D428*
X98936Y-81399D02*
D03*
X101264Y-78523D02*
D03*
D429*
X-76492Y56730D02*
D03*
X-78508Y53627D02*
D03*
D430*
X200Y157600D02*
D03*
X0Y-157700D02*
D03*
X157600Y0D02*
D03*
X-157400D02*
D03*
D431*
X-209800Y-6061D02*
D03*
Y16239D02*
D03*
D432*
Y-16061D02*
D03*
Y6239D02*
D03*
D433*
X-5200Y-211261D02*
D03*
X4800D02*
D03*
D434*
X207800Y-19761D02*
D03*
D435*
Y20239D02*
D03*
Y10239D02*
D03*
Y239D02*
D03*
Y-9761D02*
D03*
D436*
X43300Y11500D02*
D03*
X29900Y11400D02*
D03*
X49830Y-31400D02*
D03*
X23400Y-19497D02*
D03*
X39050Y8788D02*
D03*
X-89800Y-14500D02*
D03*
X-8200Y-61689D02*
D03*
X-97300Y-19900D02*
D03*
X64588Y18109D02*
D03*
X14164Y164D02*
D03*
X-6700Y-54700D02*
D03*
X-22352Y-52568D02*
D03*
X-77900Y-42600D02*
D03*
X-300Y-24000D02*
D03*
X-44000Y-35000D02*
D03*
X-32600Y-700D02*
D03*
X-18500Y-14461D02*
D03*
X-52300Y-40500D02*
D03*
X-70259Y-53969D02*
D03*
X-2500Y-119200D02*
D03*
X-12500Y-119400D02*
D03*
X-42974Y-80374D02*
D03*
X-49400Y-80200D02*
D03*
X-19700Y-80600D02*
D03*
X4500Y-83100D02*
D03*
X2500Y-86700D02*
D03*
X-24900Y-83400D02*
D03*
X-44300Y-31700D02*
D03*
X-37100Y15900D02*
D03*
X-55300Y-2985D02*
D03*
Y-18300D02*
D03*
X-51400Y4700D02*
D03*
X14900Y-28700D02*
D03*
X25800Y-87000D02*
D03*
Y-114561D02*
D03*
M02*
