G04*
G04 #@! TF.GenerationSoftware,Altium Limited,Altium Designer,18.1.7 (191)*
G04*
G04 Layer_Color=16711935*
%FSLAX25Y25*%
%MOIN*%
G70*
G01*
G75*
%ADD233R,0.02272X0.02972*%
%ADD237R,0.03800X0.04300*%
%ADD345R,0.02972X0.02272*%
%ADD430C,0.06800*%
%ADD431C,0.06706*%
%ADD432R,0.06706X0.06706*%
%ADD433C,0.07099*%
%ADD434R,0.08674X0.08674*%
%ADD435C,0.08674*%
%ADD436C,0.03162*%
%ADD521R,0.04300X0.03800*%
%ADD522R,0.02600X0.03300*%
%ADD523R,0.09265X0.07099*%
%ADD524R,0.01745X0.03162*%
%ADD525R,0.03972X0.03472*%
%ADD526R,0.03472X0.03972*%
%ADD527R,0.03950X0.04343*%
%ADD528R,0.04343X0.03950*%
%ADD529R,0.01863X0.02257*%
%ADD530R,0.02257X0.01863*%
%ADD531R,0.11824X0.07887*%
%ADD532R,0.07887X0.07887*%
%ADD533R,0.01587X0.03950*%
%ADD534R,0.03950X0.01587*%
%ADD535P,0.07360X8X217.5*%
%ADD536R,0.03950X0.03950*%
%ADD537R,0.03950X0.03950*%
%ADD538R,0.01417X0.01614*%
%ADD539R,0.01614X0.01417*%
%ADD540R,0.04028X0.07572*%
%ADD541R,0.04343X0.04619*%
%ADD542R,0.03398X0.02414*%
%ADD543R,0.06706X0.12611*%
%ADD544R,0.02532X0.06469*%
%ADD545R,0.02257X0.01902*%
%ADD546R,0.05524X0.03950*%
%ADD547R,0.05918X0.08280*%
%ADD548R,0.23241X0.07099*%
%ADD549R,0.03162X0.02769*%
%ADD550R,0.07099X0.23241*%
%ADD551R,0.03300X0.02600*%
%ADD552R,0.03162X0.01745*%
%ADD553R,0.07099X0.09265*%
%ADD554R,0.01614X0.01614*%
%ADD555R,0.06551X0.04551*%
%ADD556R,0.04551X0.06551*%
%ADD557P,0.07360X8X192.5*%
%ADD558P,0.07360X8X244.5*%
%ADD559P,0.07360X8X212.5*%
%ADD560P,0.07360X8X204.5*%
%ADD561P,0.07360X8X224.5*%
%ADD562P,0.07360X8X231.5*%
%ADD563P,0.07360X8X237.5*%
%ADD564P,0.07360X8X202.5*%
%ADD565R,0.01614X0.01614*%
%ADD566R,0.02572X0.01981*%
%ADD567R,0.04737X0.07099*%
D233*
X46150Y-40261D02*
D03*
X42450D02*
D03*
X60350Y-13161D02*
D03*
X64050D02*
D03*
X35423Y-10661D02*
D03*
X31723D02*
D03*
Y-6861D02*
D03*
X35423D02*
D03*
X-14100Y-15461D02*
D03*
X-10400D02*
D03*
D237*
X-45400Y-2910D02*
D03*
X-51400D02*
D03*
X88400Y-125761D02*
D03*
X94400D02*
D03*
X88900Y-9761D02*
D03*
X82900D02*
D03*
X173700Y-7961D02*
D03*
X167700D02*
D03*
X50300Y-39661D02*
D03*
X56300D02*
D03*
X11400Y-34873D02*
D03*
X17400D02*
D03*
X9200Y-14261D02*
D03*
X15200D02*
D03*
X-1300Y-46400D02*
D03*
X-7300D02*
D03*
X-8000Y-40061D02*
D03*
X-2000D02*
D03*
X-8000Y-34261D02*
D03*
X-2000D02*
D03*
X-17100Y2339D02*
D03*
X-23100D02*
D03*
D345*
X-19367Y-51511D02*
D03*
Y-47811D02*
D03*
X42500Y-17361D02*
D03*
Y-21061D02*
D03*
X25800Y-46811D02*
D03*
Y-43111D02*
D03*
X29800Y-46811D02*
D03*
Y-43111D02*
D03*
X-23333Y-47811D02*
D03*
Y-51511D02*
D03*
X49800Y-35311D02*
D03*
Y-31611D02*
D03*
X6511Y27907D02*
D03*
Y31607D02*
D03*
X23600Y-17511D02*
D03*
Y-13811D02*
D03*
X-93400Y-6461D02*
D03*
Y-10161D02*
D03*
X-89400Y-6461D02*
D03*
Y-10161D02*
D03*
X-27300Y-51511D02*
D03*
Y-47811D02*
D03*
X38500Y-21061D02*
D03*
Y-17361D02*
D03*
X2322Y31607D02*
D03*
Y27907D02*
D03*
X19600Y-13811D02*
D03*
Y-17511D02*
D03*
X21800Y-43111D02*
D03*
Y-46811D02*
D03*
X-85400Y-10161D02*
D03*
Y-6461D02*
D03*
D430*
X200Y157600D02*
D03*
X0Y-157700D02*
D03*
X157600Y0D02*
D03*
X-157400D02*
D03*
D431*
X-209800Y-6061D02*
D03*
Y16239D02*
D03*
D432*
Y-16061D02*
D03*
Y6239D02*
D03*
D433*
X-5200Y-211261D02*
D03*
X4800D02*
D03*
D434*
X207800Y-19761D02*
D03*
D435*
Y20239D02*
D03*
Y10239D02*
D03*
Y239D02*
D03*
Y-9761D02*
D03*
D436*
X55200Y-7261D02*
D03*
X43300Y11500D02*
D03*
X29900Y11400D02*
D03*
X89300Y7239D02*
D03*
Y-1861D02*
D03*
X49830Y-31400D02*
D03*
X42700Y-25761D02*
D03*
X46000Y-27900D02*
D03*
X23900Y8539D02*
D03*
X22000Y18839D02*
D03*
X23400Y-19497D02*
D03*
X43037Y-9705D02*
D03*
X92469Y6970D02*
D03*
X50417Y-19561D02*
D03*
X55839Y-32561D02*
D03*
X39050Y8788D02*
D03*
X27400Y8539D02*
D03*
X18900Y18839D02*
D03*
X14600Y-3961D02*
D03*
X-40900Y37400D02*
D03*
X-89800Y-14500D02*
D03*
X-40523Y-11600D02*
D03*
X13216Y-62702D02*
D03*
X-8200Y-61689D02*
D03*
X-30800Y-46261D02*
D03*
X89800Y13039D02*
D03*
X-97300Y-19900D02*
D03*
X64588Y18109D02*
D03*
X40000Y-10661D02*
D03*
X16200Y4139D02*
D03*
X14164Y164D02*
D03*
X23700Y-3792D02*
D03*
X-6700Y-54700D02*
D03*
X-22352Y-52568D02*
D03*
X-77900Y-42600D02*
D03*
X-300Y-24000D02*
D03*
X-44000Y-35000D02*
D03*
X-32600Y-700D02*
D03*
X-18500Y-14461D02*
D03*
X-22900Y7500D02*
D03*
X-52300Y-40500D02*
D03*
X-70259Y-53969D02*
D03*
X-2500Y-119200D02*
D03*
X-12500Y-119400D02*
D03*
X-42974Y-80374D02*
D03*
X-49400Y-80200D02*
D03*
X-19700Y-80600D02*
D03*
X4500Y-83100D02*
D03*
X2500Y-86700D02*
D03*
X-24900Y-83400D02*
D03*
X-44300Y-31700D02*
D03*
X-37100Y15900D02*
D03*
X-55300Y-2985D02*
D03*
Y-18300D02*
D03*
X-51400Y4700D02*
D03*
X4161Y-62022D02*
D03*
X6000Y-57861D02*
D03*
X14900Y-28700D02*
D03*
X15200Y-23761D02*
D03*
X22400Y-62154D02*
D03*
X25800Y-87000D02*
D03*
Y-114561D02*
D03*
X-31700Y-12500D02*
D03*
X129500Y-14761D02*
D03*
X108100Y-6761D02*
D03*
X100400Y-6915D02*
D03*
X85600Y-35561D02*
D03*
X182500Y-30561D02*
D03*
X196200D02*
D03*
X-6600Y183039D02*
D03*
X11750Y155039D02*
D03*
X17000Y111639D02*
D03*
X-7878Y63028D02*
D03*
X-18800Y46647D02*
D03*
X-39100Y48539D02*
D03*
X-65900Y6139D02*
D03*
X-49153Y29019D02*
D03*
X-49900Y17039D02*
D03*
X-44100Y-43361D02*
D03*
X83600Y31639D02*
D03*
X11038Y55739D02*
D03*
X7000Y57317D02*
D03*
X-132200Y739D02*
D03*
X12900Y-92161D02*
D03*
X-111000Y99939D02*
D03*
X-114184Y106865D02*
D03*
X-71500Y109439D02*
D03*
X-68300Y144139D02*
D03*
X24200Y21839D02*
D03*
X26500Y26839D02*
D03*
X-8200Y51039D02*
D03*
X-8329Y27513D02*
D03*
X66600Y24539D02*
D03*
X11700Y33339D02*
D03*
X80800Y-114061D02*
D03*
X69500Y-48361D02*
D03*
X50000Y44539D02*
D03*
X-122097Y19642D02*
D03*
X20600Y171539D02*
D03*
X23000Y142381D02*
D03*
X32900Y75739D02*
D03*
X44600Y95639D02*
D03*
X28100Y67539D02*
D03*
X46939Y61339D02*
D03*
X206000Y-38261D02*
D03*
X66100Y64039D02*
D03*
X78800Y51339D02*
D03*
X46400Y-71861D02*
D03*
X28800Y-82761D02*
D03*
X-202200Y27339D02*
D03*
X-64100Y-65961D02*
D03*
X-50700Y-72261D02*
D03*
X-14600Y-194261D02*
D03*
X16700D02*
D03*
X165300Y7939D02*
D03*
X87900Y-5161D02*
D03*
X-11146Y150139D02*
D03*
X60600Y42339D02*
D03*
X42600Y19639D02*
D03*
X103800Y-19861D02*
D03*
X111132D02*
D03*
X-82800Y-75961D02*
D03*
X-112000Y3039D02*
D03*
X15300Y-155861D02*
D03*
X97356Y-112866D02*
D03*
X-10500Y17739D02*
D03*
X-18600Y-152261D02*
D03*
X21500Y13839D02*
D03*
X170700Y-21811D02*
D03*
X178400Y-7961D02*
D03*
D521*
X65700Y13139D02*
D03*
Y7139D02*
D03*
X100000Y-125961D02*
D03*
Y-119961D02*
D03*
X94600Y-10161D02*
D03*
Y-4161D02*
D03*
X167900Y4039D02*
D03*
Y-1961D02*
D03*
X58900Y19489D02*
D03*
Y25489D02*
D03*
X53100Y19489D02*
D03*
Y25489D02*
D03*
X59600Y7239D02*
D03*
Y13239D02*
D03*
X54700Y-15211D02*
D03*
Y-21211D02*
D03*
X-100100Y-36700D02*
D03*
Y-30700D02*
D03*
X-2000Y-52061D02*
D03*
Y-58061D02*
D03*
X-40250Y29840D02*
D03*
Y23840D02*
D03*
D522*
X-41250Y-3410D02*
D03*
X-37550D02*
D03*
D523*
X-42837Y-12922D02*
D03*
D524*
X-38900Y-7410D02*
D03*
X-40868D02*
D03*
X-42837D02*
D03*
X-44805D02*
D03*
X-38900Y-18434D02*
D03*
X-46774Y-7410D02*
D03*
Y-18434D02*
D03*
X-44805D02*
D03*
X-42837D02*
D03*
X-40868D02*
D03*
D525*
X-14900Y-71200D02*
D03*
Y-77200D02*
D03*
D526*
X-86100Y-14511D02*
D03*
X-92100D02*
D03*
D527*
X-74360Y-39434D02*
D03*
X-81840D02*
D03*
X-78100Y-31166D02*
D03*
X-87160Y-31034D02*
D03*
X-94640D02*
D03*
X-90900Y-22766D02*
D03*
D528*
X1334Y-70253D02*
D03*
Y-77733D02*
D03*
X-6934Y-73993D02*
D03*
X-7013Y-58160D02*
D03*
Y-65640D02*
D03*
X-15280Y-61900D02*
D03*
D529*
X-16535Y-66900D02*
D03*
X-18700D02*
D03*
X-90917Y-18700D02*
D03*
X-93083D02*
D03*
X-3483Y-65600D02*
D03*
X-1317D02*
D03*
X-88565Y-35200D02*
D03*
X-86400D02*
D03*
X6757Y-78793D02*
D03*
X4592D02*
D03*
X-55760Y-105761D02*
D03*
X-57926D02*
D03*
X-55760Y-89561D02*
D03*
X-57926D02*
D03*
X7840Y-108661D02*
D03*
X5674D02*
D03*
X5674Y-92161D02*
D03*
X7840D02*
D03*
X64117Y42339D02*
D03*
X66283D02*
D03*
X81065Y15639D02*
D03*
X78900D02*
D03*
X80600Y239D02*
D03*
X78435D02*
D03*
X60517Y-3761D02*
D03*
X62683D02*
D03*
X92617Y-19861D02*
D03*
X94783D02*
D03*
X94783Y-35561D02*
D03*
X92617D02*
D03*
X35050Y-37228D02*
D03*
X32885D02*
D03*
X9564Y12289D02*
D03*
X7399D02*
D03*
X9564Y15289D02*
D03*
X7399D02*
D03*
X-31183Y-14161D02*
D03*
X-29017D02*
D03*
D530*
X-70100Y-31617D02*
D03*
Y-33783D02*
D03*
X43800Y36839D02*
D03*
Y34674D02*
D03*
X61400Y32745D02*
D03*
Y30579D02*
D03*
X78500Y32745D02*
D03*
Y30579D02*
D03*
X82500Y20056D02*
D03*
Y22222D02*
D03*
X63000Y25007D02*
D03*
Y27172D02*
D03*
X81900Y-48978D02*
D03*
Y-51144D02*
D03*
X65300Y-51144D02*
D03*
Y-48978D02*
D03*
X27000Y-17065D02*
D03*
Y-14900D02*
D03*
X-13200Y1056D02*
D03*
Y3222D02*
D03*
D531*
X17852Y-98261D02*
D03*
X49348D02*
D03*
D03*
D03*
X-14252Y-95261D02*
D03*
D03*
D03*
X-45748D02*
D03*
X106948Y-70661D02*
D03*
D03*
D03*
X75452D02*
D03*
X104200Y-28261D02*
D03*
X135696D02*
D03*
D03*
D03*
D532*
X49400Y-1411D02*
D03*
D533*
X52550Y-7316D02*
D03*
X50975D02*
D03*
X49400D02*
D03*
X47825D02*
D03*
X46250D02*
D03*
Y4495D02*
D03*
X47825D02*
D03*
X49400D02*
D03*
X50975D02*
D03*
X52550D02*
D03*
D534*
X43494Y-4560D02*
D03*
Y-2985D02*
D03*
Y-1411D02*
D03*
Y164D02*
D03*
Y1739D02*
D03*
X55305D02*
D03*
Y164D02*
D03*
Y-1411D02*
D03*
Y-2985D02*
D03*
Y-4560D02*
D03*
D535*
X-117400Y-32761D02*
D03*
D536*
X-56668Y-93920D02*
D03*
Y-101401D02*
D03*
X-65132Y-97660D02*
D03*
X7032Y-96920D02*
D03*
Y-104401D02*
D03*
X-1432Y-100660D02*
D03*
X55700Y39602D02*
D03*
Y32122D02*
D03*
X47235Y35862D02*
D03*
X69168Y18449D02*
D03*
Y25929D02*
D03*
X77632Y22189D02*
D03*
X93100Y-23681D02*
D03*
Y-31161D02*
D03*
X84635Y-27421D02*
D03*
X67075Y-72920D02*
D03*
Y-80401D02*
D03*
X58611Y-76660D02*
D03*
X-17668Y-10720D02*
D03*
Y-18201D02*
D03*
X-26132Y-14460D02*
D03*
D537*
X-28759Y-73993D02*
D03*
X-36239D02*
D03*
X-32499Y-65529D02*
D03*
X123541Y-8193D02*
D03*
X116060D02*
D03*
X119801Y271D02*
D03*
X73480Y31487D02*
D03*
X66000D02*
D03*
X69740Y39951D02*
D03*
X79341Y4857D02*
D03*
X71860D02*
D03*
X75601Y13322D02*
D03*
X35341Y-77293D02*
D03*
X27861D02*
D03*
X31601Y-68829D02*
D03*
X77041Y-50236D02*
D03*
X69560D02*
D03*
X73301Y-41772D02*
D03*
D538*
X-30700Y-61900D02*
D03*
X-28535D02*
D03*
X57703Y-85061D02*
D03*
X59869D02*
D03*
X45717Y-16161D02*
D03*
X47883D02*
D03*
X16535Y-10300D02*
D03*
X18700D02*
D03*
X9917Y27557D02*
D03*
X12083D02*
D03*
D539*
X128500Y-6936D02*
D03*
Y-9101D02*
D03*
X40000Y-76035D02*
D03*
Y-78201D02*
D03*
D540*
X73693Y-20611D02*
D03*
X60307D02*
D03*
D541*
X28309Y-32961D02*
D03*
X34491D02*
D03*
D542*
X21800Y-37949D02*
D03*
Y-33973D02*
D03*
D543*
X-8871Y-24261D02*
D03*
X7271D02*
D03*
D544*
X31833Y-16274D02*
D03*
D545*
X29766Y-13911D02*
D03*
Y-15486D02*
D03*
Y-17061D02*
D03*
Y-18636D02*
D03*
X33900D02*
D03*
Y-17061D02*
D03*
Y-15486D02*
D03*
Y-13911D02*
D03*
D546*
X35582Y23789D02*
D03*
Y18789D02*
D03*
Y13789D02*
D03*
Y8788D02*
D03*
X13928D02*
D03*
Y13789D02*
D03*
Y18789D02*
D03*
Y23789D02*
D03*
D547*
X32353Y47537D02*
D03*
Y34939D02*
D03*
X10700D02*
D03*
Y47537D02*
D03*
D548*
X-71100Y13989D02*
D03*
Y-4515D02*
D03*
D549*
X-81300Y-13700D02*
D03*
Y-10157D02*
D03*
X-15400Y-51425D02*
D03*
Y-47881D02*
D03*
D550*
X-38152Y-33410D02*
D03*
X-19648D02*
D03*
D551*
X-47800Y-21811D02*
D03*
Y-25511D02*
D03*
X-63750Y22590D02*
D03*
Y26290D02*
D03*
X-39750Y15889D02*
D03*
Y19589D02*
D03*
D552*
X-56262Y15471D02*
D03*
Y17440D02*
D03*
Y19408D02*
D03*
Y21377D02*
D03*
X-45238D02*
D03*
X-56262Y13503D02*
D03*
X-45238Y19408D02*
D03*
Y17440D02*
D03*
Y15471D02*
D03*
Y13503D02*
D03*
D553*
X-50750Y17440D02*
D03*
D554*
X-45900Y27621D02*
D03*
Y25259D02*
D03*
D555*
X-69900Y-12910D02*
D03*
Y-20910D02*
D03*
X-61900Y-12910D02*
D03*
Y-20910D02*
D03*
X-53900Y-12910D02*
D03*
Y-20910D02*
D03*
D556*
X-50750Y27940D02*
D03*
X-58750D02*
D03*
X-50750Y36440D02*
D03*
X-58750D02*
D03*
X-50750Y44940D02*
D03*
X-58750D02*
D03*
D557*
X-120500Y18939D02*
D03*
D558*
X-91400Y-80661D02*
D03*
D559*
X-120400Y-19961D02*
D03*
D560*
X-121900Y-5761D02*
D03*
D561*
X-113000Y-45761D02*
D03*
D562*
X-107200Y-57961D02*
D03*
D563*
X-99600Y-70061D02*
D03*
D564*
X-121800Y6739D02*
D03*
D565*
X-51719Y-7910D02*
D03*
X-54081D02*
D03*
D566*
X38561Y-31269D02*
D03*
Y-33828D02*
D03*
Y-36387D02*
D03*
X46239D02*
D03*
Y-33828D02*
D03*
Y-31269D02*
D03*
D567*
X42400Y-33828D02*
D03*
M02*
